<svg width="81" height="81" viewBox="0 0 81 81" fill="none" xmlns="http://www.w3.org/2000/svg">
<g filter="url(#filter0_d_0_491)">
<path fill-rule="evenodd" clip-rule="evenodd" d="M40.9082 68.002C57.4767 68.002 70.9082 54.5705 70.9082 38.002C70.9082 21.4334 57.4767 8.00195 40.9082 8.00195C24.3397 8.00195 10.9082 21.4334 10.9082 38.002C10.9082 54.5705 24.3397 68.002 40.9082 68.002Z" fill="white"/>
</g>
<path d="M55.9082 33.4712H55.8932C55.8149 28.4645 52.0815 24.002 47.4715 24.002C44.8049 24.002 42.4549 25.5192 40.9082 27.747C39.3615 25.5192 37.0115 24.002 34.3449 24.002C29.7349 24.002 26.0015 28.4645 25.9232 33.4712H25.9082C25.9082 33.5027 25.9132 33.5307 25.9132 33.5605C25.9132 33.5832 25.9082 33.606 25.9082 33.6305C25.9082 33.7705 25.9399 33.8772 25.9465 34.012C26.3582 46.7712 40.7899 52.002 40.7899 52.002C40.7899 52.002 55.4332 46.7765 55.8665 34.0312C55.8749 33.8895 55.9082 33.7775 55.9082 33.6305C55.9082 33.606 55.9032 33.5832 55.9032 33.5605C55.9032 33.5272 55.9082 33.501 55.9082 33.4712Z" fill="#F05522"/>
<mask id="mask0_0_491" style="mask-type:luminance" maskUnits="userSpaceOnUse" x="25" y="24" width="31" height="29">
<path d="M55.9082 33.4712H55.8932C55.8149 28.4645 52.0815 24.002 47.4715 24.002C44.8049 24.002 42.4549 25.5192 40.9082 27.747C39.3615 25.5192 37.0115 24.002 34.3449 24.002C29.7349 24.002 26.0015 28.4645 25.9232 33.4712H25.9082C25.9082 33.5027 25.9132 33.5307 25.9132 33.5605C25.9132 33.5832 25.9082 33.606 25.9082 33.6305C25.9082 33.7705 25.9399 33.8772 25.9465 34.012C26.3582 46.7712 40.7899 52.002 40.7899 52.002C40.7899 52.002 55.4332 46.7765 55.8665 34.0312C55.8749 33.8895 55.9082 33.7775 55.9082 33.6305C55.9082 33.606 55.9032 33.5832 55.9032 33.5605C55.9032 33.5272 55.9082 33.501 55.9082 33.4712Z" fill="white"/>
</mask>
<g mask="url(#mask0_0_491)">
</g>
<defs>
<filter id="filter0_d_0_491" x="0.908203" y="0.00195312" width="80" height="80" filterUnits="userSpaceOnUse" color-interpolation-filters="sRGB">
<feFlood flood-opacity="0" result="BackgroundImageFix"/>
<feColorMatrix in="SourceAlpha" type="matrix" values="0 0 0 0 0 0 0 0 0 0 0 0 0 0 0 0 0 0 127 0" result="hardAlpha"/>
<feOffset dy="2"/>
<feGaussianBlur stdDeviation="5"/>
<feColorMatrix type="matrix" values="0 0 0 0 0 0 0 0 0 0 0 0 0 0 0 0 0 0 0.128114 0"/>
<feBlend mode="normal" in2="BackgroundImageFix" result="effect1_dropShadow_0_491"/>
<feBlend mode="normal" in="SourceGraphic" in2="effect1_dropShadow_0_491" result="shape"/>
</filter>
</defs>
</svg>
