<svg width="37" height="36" viewBox="0 0 37 36" fill="none" xmlns="http://www.w3.org/2000/svg">
<path fill-rule="evenodd" clip-rule="evenodd" d="M18.25 36C28.1911 36 36.25 27.9411 36.25 18C36.25 8.05887 28.1911 0 18.25 0C8.30887 0 0.25 8.05887 0.25 18C0.25 27.9411 8.30887 36 18.25 36Z" fill="white" fill-opacity="0.05"/>
<mask id="mask0_0_449" style="mask-type:luminance" maskUnits="userSpaceOnUse" x="0" y="0" width="37" height="36">
<path fill-rule="evenodd" clip-rule="evenodd" d="M18.25 36C28.1911 36 36.25 27.9411 36.25 18C36.25 8.05887 28.1911 0 18.25 0C8.30887 0 0.25 8.05887 0.25 18C0.25 27.9411 8.30887 36 18.25 36Z" fill="white"/>
</mask>
<g mask="url(#mask0_0_449)">
<path fill-rule="evenodd" clip-rule="evenodd" d="M8.25 18.5C8.25 19.8854 9.36558 21 10.7475 21C12.1344 21 13.25 19.8854 13.25 18.5C13.25 17.1198 12.1344 16 10.7475 16C9.36558 16 8.25 17.1198 8.25 18.5ZM17.8951 21C16.5132 21 15.3926 19.8854 15.3926 18.5C15.3926 17.1198 16.5132 16 17.8951 16C19.277 16 20.3926 17.1198 20.3926 18.5C20.3926 19.8854 19.277 21 17.8951 21ZM25.0361 21C23.6556 21 22.5361 19.8854 22.5361 18.5C22.5361 17.1198 23.6506 16 25.0361 16C26.4167 16 27.5361 17.1198 27.5361 18.5C27.5361 19.8854 26.4217 21 25.0361 21Z" fill="#C1C0C9"/>
</g>
</svg>
