<svg width="13" height="14" viewBox="0 0 13 14" fill="none" xmlns="http://www.w3.org/2000/svg">
<rect y="0.23584" width="12.9487" height="12.9487" rx="2" fill="#F02656"/>
<path d="M6.09615 10.5091C6.07006 10.5091 6.04425 10.5037 6.02035 10.4933C5.99644 10.4828 5.97496 10.4675 5.95726 10.4483L2.21236 6.39745C2.1874 6.37044 2.17085 6.33675 2.16474 6.30048C2.15863 6.26421 2.16322 6.22695 2.17796 6.19326C2.1927 6.15956 2.21694 6.13089 2.24772 6.11076C2.2785 6.09063 2.31448 6.07991 2.35125 6.07991H4.15384C4.1809 6.07991 4.20765 6.08572 4.23228 6.09694C4.25691 6.10816 4.27885 6.12454 4.29661 6.14496L5.54817 7.58483C5.68343 7.2957 5.94526 6.81428 6.40474 6.22765C7.08401 5.36041 8.34749 4.08496 10.5092 2.93357C10.5509 2.91132 10.5995 2.90555 10.6454 2.91739C10.6912 2.92923 10.7309 2.95783 10.7567 2.99753C10.7825 3.03723 10.7924 3.08515 10.7846 3.13184C10.7768 3.17852 10.7517 3.22057 10.7144 3.24968C10.7061 3.25613 9.87267 3.91247 8.91346 5.11468C8.03066 6.22101 6.85715 8.03003 6.2797 10.3654C6.26955 10.4065 6.24596 10.4429 6.21268 10.469C6.1794 10.495 6.13836 10.5092 6.09609 10.5092L6.09615 10.5091Z" fill="white"/>
</svg>
