<svg width="81" height="81" viewBox="0 0 81 81" fill="none" xmlns="http://www.w3.org/2000/svg">
<g opacity="0.96">
<g filter="url(#filter0_d_74_1975)">
<path fill-rule="evenodd" clip-rule="evenodd" d="M40.6216 68.0555C57.1731 68.0555 70.5908 54.6379 70.5908 38.0863C70.5908 21.5348 57.1731 8.11707 40.6216 8.11707C24.07 8.11707 10.6523 21.5348 10.6523 38.0863C10.6523 54.6379 24.07 68.0555 40.6216 68.0555Z" fill="white"/>
</g>
</g>
<path d="M25.7061 26.439H30.6V46.0294H25.7061V26.439ZM55.5356 37.9114C55.5356 36.7518 54.8616 35.7473 53.8848 35.2678C54.1532 34.8154 54.2946 34.299 54.2942 33.773C54.2942 32.5165 53.5024 31.4419 52.3916 31.0207C52.6203 30.5945 52.7398 30.1183 52.7393 29.6346C52.7393 28.0118 51.4192 26.6916 49.7962 26.6916H36.454L32.3478 28.2405V44.361H33.9757L39.4656 50.7121L39.9374 53.3113C40.0867 54.1332 40.8011 54.7296 41.6366 54.7296H42.6463C44.5905 54.7296 46.1725 53.1477 46.1725 51.2035C46.1725 49.9814 45.9374 48.7888 45.4736 47.6582L44.4258 44.9928H51.7096C53.3324 44.9928 54.6529 43.6726 54.6529 42.0497C54.6535 41.4641 54.4784 40.8918 54.1504 40.4068C54.9815 39.8862 55.5356 38.9623 55.5356 37.9114Z" fill="#939393"/>
<defs>
<filter id="filter0_d_74_1975" x="0.652344" y="0.117065" width="79.9385" height="79.9385" filterUnits="userSpaceOnUse" color-interpolation-filters="sRGB">
<feFlood flood-opacity="0" result="BackgroundImageFix"/>
<feColorMatrix in="SourceAlpha" type="matrix" values="0 0 0 0 0 0 0 0 0 0 0 0 0 0 0 0 0 0 127 0" result="hardAlpha"/>
<feOffset dy="2"/>
<feGaussianBlur stdDeviation="5"/>
<feColorMatrix type="matrix" values="0 0 0 0 0 0 0 0 0 0 0 0 0 0 0 0 0 0 0.128114 0"/>
<feBlend mode="normal" in2="BackgroundImageFix" result="effect1_dropShadow_74_1975"/>
<feBlend mode="normal" in="SourceGraphic" in2="effect1_dropShadow_74_1975" result="shape"/>
</filter>
</defs>
</svg>
