<svg width="18" height="17" viewBox="0 0 18 17" fill="none" xmlns="http://www.w3.org/2000/svg">
<path fill-rule="evenodd" clip-rule="evenodd" d="M13.5 0H4.5C2.01472 0 0 2.01472 0 4.5V12.5C0 14.9853 2.01472 17 4.5 17H13.5C15.9853 17 18 14.9853 18 12.5V4.5C18 2.01472 15.9853 0 13.5 0ZM5.57143 9L3 4.88235C4 2.96078 6 2 9 2C12 2 14 2.96078 15 4.88235L12.4286 9H10.0549L11.4005 6.92795C11.7013 6.46476 11.5697 5.84543 11.1065 5.54464C10.6433 5.24384 10.024 5.37549 9.7232 5.83867L7.6702 9H5.57143Z" fill="#F02656"/>
</svg>
