<svg width="23" height="18" viewBox="0 0 23 18" fill="none" xmlns="http://www.w3.org/2000/svg">
<path fill-rule="evenodd" clip-rule="evenodd" d="M18.793 17.3965H4.1738C2.99691 17.4068 1.99674 16.5387 1.84143 15.372L0.288082 3.69624C0.212359 3.11347 0.508813 2.54546 1.03021 2.27434C1.5516 2.00321 2.18685 2.08673 2.62044 2.48341L5.23269 4.90441C5.51155 5.17731 5.89168 5.3214 6.28137 5.30191C6.67106 5.28243 7.03492 5.10114 7.28517 4.80178L10.4105 1.11665C10.6764 0.799149 11.0693 0.615723 11.4834 0.615723C11.8975 0.615723 12.2904 0.799149 12.5563 1.11665L15.6817 4.80178C15.9288 5.09486 16.2852 5.27375 16.6679 5.29667C17.0505 5.31959 17.4258 5.18455 17.7062 4.92306L20.3184 2.46942C20.752 2.07274 21.3872 1.98922 21.9086 2.26035C22.43 2.53147 22.7265 3.09947 22.6508 3.68225L21.0974 15.3441C20.9563 16.5112 19.9687 17.3909 18.793 17.3965Z" fill="white"/>
</svg>
