<svg width="18" height="20" viewBox="0 0 18 20" fill="none" xmlns="http://www.w3.org/2000/svg">
<path fill-rule="evenodd" clip-rule="evenodd" d="M17.5 15C16.4055 15 16.2789 13.75 14.5898 13.75C12.8934 13.75 12.7607 15 11.6699 15C10.5881 15 10.4412 13.75 8.75 13.75C7.07648 13.75 6.90555 15 5.83984 15C4.74031 15 4.62102 13.75 2.91992 13.75C1.21887 13.75 1.09754 15 0 15V11.875C0 10.8398 0.839844 10 1.875 10H2.5V4.375H5V10H7.5V4.375H10V10H12.5V4.375H15V10H15.625C16.6602 10 17.5 10.8398 17.5 11.875V15ZM17.5 20H0V16.25C1.69359 16.25 1.82684 15 2.91992 15C4.01176 15 4.14074 16.25 5.83984 16.25C7.5134 16.25 7.68426 15 8.75 15C9.84953 15 9.96879 16.25 11.6699 16.25C13.3636 16.25 13.4968 15 14.5898 15C15.6636 15 15.8106 16.25 17.5 16.25V20ZM3.75 3.75C3.05664 3.75 2.5 3.19336 2.5 2.5C2.5 1.28906 3.75 1.60156 3.75 0C4.21875 0 5 1.15234 5 2.1875C5 3.22266 4.44336 3.75 3.75 3.75ZM8.75 3.75C8.05664 3.75 7.5 3.19336 7.5 2.5C7.5 1.28906 8.75 1.60156 8.75 0C9.21875 0 10 1.15234 10 2.1875C10 3.22266 9.44336 3.75 8.75 3.75ZM13.75 3.75C13.0566 3.75 12.5 3.19336 12.5 2.5C12.5 1.28906 13.75 1.60156 13.75 0C14.2188 0 15 1.15234 15 2.1875C15 3.22266 14.4434 3.75 13.75 3.75Z" fill="#F02656"/>
</svg>
