<svg width="25" height="20" viewBox="0 0 25 20" fill="none" xmlns="http://www.w3.org/2000/svg">
<path d="M15.4864 10.4055L16.8949 8.99692C16.9974 9.38034 17.0575 9.7812 17.0575 10.1966C17.0575 12.7606 14.9716 14.8465 12.4075 14.8465C11.9922 14.8465 11.5913 14.7864 11.2079 14.6839L12.6164 13.2754C13.3609 13.2248 14.0619 12.9062 14.5895 12.3786C15.1172 11.8509 15.4358 11.15 15.4864 10.4055ZM24.7097 9.82014C24.6143 9.64868 23.2624 7.27974 20.6197 5.27215L19.4919 6.39994C21.4189 7.81681 22.6399 9.46927 23.1205 10.1978C22.202 11.5964 18.5987 16.3965 12.4075 16.3965C11.4791 16.3965 10.6158 16.2777 9.8034 16.0882L8.52991 17.3617C9.70072 17.7207 10.9876 17.9464 12.4075 17.9464C20.5203 17.9464 24.5424 10.8739 24.7097 10.573C24.7737 10.4579 24.8073 10.3283 24.8073 10.1966C24.8073 10.0648 24.7737 9.93528 24.7097 9.82014ZM21.4803 2.21968L4.43063 19.2693C4.27931 19.4207 4.08092 19.4964 3.88271 19.4964C3.68451 19.4964 3.48612 19.4207 3.3348 19.2693C3.26279 19.1974 3.20567 19.112 3.16669 19.018C3.12772 18.924 3.10765 18.8232 3.10765 18.7214C3.10765 18.6197 3.12772 18.5189 3.16669 18.4249C3.20567 18.3308 3.26279 18.2454 3.3348 18.1735L5.50398 16.0043C1.99718 13.8873 0.215293 10.7709 0.105439 10.573C0.041413 10.4579 0.0078125 10.3283 0.0078125 10.1965C0.0078125 10.0647 0.041413 9.93512 0.105439 9.81995C0.272642 9.51926 4.29481 2.44675 12.4075 2.44675C14.5052 2.44675 16.3222 2.9253 17.8754 3.63286L20.3845 1.12385C20.6873 0.821022 21.1777 0.821022 21.4803 1.12385C21.7829 1.42667 21.7831 1.91704 21.4803 2.21968ZM6.65968 14.8486L8.62174 12.8866C8.07984 12.1263 7.75764 11.1992 7.75764 10.1966C7.75764 7.63256 9.84351 5.54669 12.4075 5.54669C13.4102 5.54669 14.3373 5.86889 15.0975 6.4106L16.6841 4.82401C15.4306 4.32202 14.0061 3.99672 12.4075 3.99672C6.21639 3.99672 2.6131 8.79678 1.69474 10.1954C2.27791 11.0793 3.95421 13.3167 6.65968 14.8486ZM9.74683 11.7613L13.9722 7.53588C13.5113 7.26366 12.9806 7.09665 12.4075 7.09665C10.6983 7.09665 9.30761 8.48736 9.30761 10.1966C9.30761 10.7697 9.47462 11.3004 9.74683 11.7613Z" fill="#6C6C6C"/>
</svg>
