<svg width="28" height="28" viewBox="0 0 28 28" fill="none" xmlns="http://www.w3.org/2000/svg">
<path fill-rule="evenodd" clip-rule="evenodd" d="M18.1663 4H9.83301C8.4523 4 7.33301 5.11929 7.33301 6.5V21.5C7.33301 22.8807 8.4523 24 9.83301 24H18.1663C19.5471 24 20.6663 22.8807 20.6663 21.5V6.5C20.6663 5.11929 19.5471 4 18.1663 4ZM18.583 19.8333C18.583 20.0635 18.3965 20.25 18.1663 20.25H9.83301C9.60289 20.25 9.41634 20.0635 9.41634 19.8333V6.5C9.41634 6.26988 9.60289 6.08333 9.83301 6.08333H18.1663C18.3965 6.08333 18.583 6.26988 18.583 6.5V19.8333Z" fill="#F02656"/>
</svg>
