<svg width="128" height="128" viewBox="0 0 128 128" fill="none" xmlns="http://www.w3.org/2000/svg">
<path fill-rule="evenodd" clip-rule="evenodd" d="M64 124C97.1371 124 124 97.1371 124 64C124 30.8629 97.1371 4 64 4C30.8629 4 4 30.8629 4 64C4 97.1371 30.8629 124 64 124Z" stroke="#F02656" stroke-width="7"/>
<path d="M82.8459 46.8593L58.8593 74.7052L47.0134 62.7052C45.8677 61.5595 44.0051 61.5595 42.8593 62.7052C41.7136 63.851 41.7136 65.7136 42.8593 66.8593L56.7735 80.9276C57.3493 81.5034 58.1072 81.7913 58.8593 81.7854C59.6173 81.7854 60.3694 81.5034 60.9452 80.9276L87 51.0134C88.1458 49.8677 88.1458 48.0051 87 46.8593C85.8542 45.7136 83.9917 45.7136 82.8459 46.8593Z" fill="#F02656"/>
</svg>
