<svg width="23" height="18" viewBox="0 0 23 18" fill="none" xmlns="http://www.w3.org/2000/svg">
<path fill-rule="evenodd" clip-rule="evenodd" d="M16.9028 2.72678H20.4729C21.4519 2.72678 22.25 3.50778 22.25 4.50267V15.3096C22.25 16.3032 21.4507 17.1111 20.4729 17.1111H2.02711C1.04322 17.1111 0.25 16.3032 0.25 15.3096V4.50267C0.25 3.50778 1.04322 2.72678 2.02711 2.72678H5.67667L7.76544 0.587889V0.583C8.08811 0.224889 8.54767 0 9.06589 0H13.5087C13.9951 0 14.4229 0.202889 14.7394 0.523111L14.7504 0.534111C14.7553 0.534111 14.7663 0.545111 14.7663 0.545111L16.9028 2.72678ZM6.36356 9.46C6.36356 12.1868 8.55867 14.4112 11.25 14.4112C13.9474 14.4112 16.1364 12.1868 16.1364 9.46C16.1364 6.72833 13.9474 4.50878 11.25 4.50878C8.55867 4.50878 6.36356 6.72711 6.36356 9.46Z" fill="#F02656"/>
</svg>
