<svg width="177" height="194" viewBox="0 0 177 194" fill="none" xmlns="http://www.w3.org/2000/svg">
<path fill-rule="evenodd" clip-rule="evenodd" d="M88 120.695C121.137 120.695 148 93.8324 148 60.6953C148 27.5582 121.137 0.695312 88 0.695312C54.8629 0.695312 28 27.5582 28 60.6953C28 93.8324 54.8629 120.695 88 120.695Z" fill="url(#paint0_linear_0_6)"/>
<path fill-rule="evenodd" clip-rule="evenodd" d="M88.2968 57.5188L84.4197 60.6441L84.4209 60.6453L81.3698 63.1039L77.4939 66.2293L59.8248 80.4701C59.5864 80.6623 59.354 80.6161 59.2007 80.5431C59.0487 80.4689 58.8662 80.3181 58.8662 80.0115V41.2791C58.8662 40.9726 59.0487 40.8217 59.2007 40.7487C59.2737 40.7134 59.3637 40.6855 59.4647 40.6855C59.5754 40.6855 59.6995 40.7195 59.8248 40.8205L80.5426 57.5188L84.4197 54.3935L62.8783 37.0322C61.2275 35.7013 59.0134 35.4434 57.101 36.3582C55.1886 37.273 54 39.1587 54 41.2791V80.0115C54 82.1319 55.1886 84.0176 57.101 84.9324C57.8601 85.2949 58.6655 85.4738 59.4659 85.4738C60.6813 85.4738 61.882 85.0614 62.8783 84.2584L81.371 69.3546L85.2482 66.2293L92.1764 60.6453L88.2968 57.5188ZM122.597 41.2791V80.0115C122.597 82.1319 121.409 84.0176 119.496 84.9324C118.737 85.2949 117.931 85.4738 117.131 85.4738C115.916 85.4738 114.715 85.0614 113.719 84.2584L92.1776 66.8971L96.0547 63.7718L116.772 80.4701C117.011 80.6623 117.243 80.6161 117.397 80.5419C117.549 80.4689 117.731 80.3181 117.731 80.0115V41.2791C117.731 40.9726 117.549 40.8217 117.397 40.7487C117.243 40.6757 117.011 40.6283 116.772 40.8205L99.1034 55.0614L95.2262 58.1867L92.1752 60.6453L92.1764 60.6465L88.3005 63.7718L84.4209 60.6453L91.3491 55.0614L95.2262 51.9361L113.719 37.0322C115.37 35.7013 117.584 35.4434 119.496 36.3582C121.409 37.273 122.597 39.1587 122.597 41.2791Z" fill="white"/>
<path d="M3.27924 175.135V155.535C3.27924 154.789 3.39924 154.295 3.63924 154.055C3.87924 153.815 4.37257 153.695 5.11924 153.695H5.63924C6.3859 153.695 6.87924 153.815 7.11924 154.055C7.35924 154.295 7.47924 154.789 7.47924 155.535V174.215C7.47924 175.229 7.99924 175.735 9.03924 175.735H17.5592C18.2792 175.735 18.7592 175.855 18.9992 176.095C19.2392 176.335 19.3592 176.815 19.3592 177.535V177.895C19.3592 178.615 19.2392 179.095 18.9992 179.335C18.7592 179.575 18.2792 179.695 17.5592 179.695H7.83924C6.23924 179.695 5.07924 179.335 4.35924 178.615C3.63924 177.895 3.27924 176.735 3.27924 175.135ZM39.6492 167.695C39.6492 167.802 39.6225 168.389 39.5692 169.455C39.4892 170.202 39.3159 170.695 39.0492 170.935C38.7825 171.175 38.2759 171.295 37.5292 171.295H26.4092V172.175C26.4092 173.642 26.8492 174.695 27.7292 175.335C28.6359 175.949 30.1025 176.255 32.1292 176.255C33.8625 176.255 35.5959 176.042 37.3292 175.615C37.9692 175.455 38.3959 175.482 38.6092 175.695C38.8492 175.882 38.9692 176.322 38.9692 177.015V177.535C38.9692 178.202 38.8625 178.655 38.6492 178.895C38.4625 179.109 38.0225 179.309 37.3292 179.495C35.8092 179.922 34.0759 180.135 32.1292 180.135C28.7425 180.135 26.2492 179.455 24.6492 178.095C23.0759 176.709 22.2892 174.535 22.2892 171.575V168.095C22.2892 162.309 25.2492 159.415 31.1692 159.415C33.9425 159.415 36.0492 160.122 37.4892 161.535C38.9292 162.922 39.6492 164.975 39.6492 167.695ZM26.4092 166.935V167.935H35.7692V166.935C35.7692 164.295 34.1959 162.975 31.0492 162.975C27.9559 162.975 26.4092 164.295 26.4092 166.935ZM42.1967 162.295V161.895C42.1967 161.335 42.29 160.949 42.4767 160.735C42.6633 160.522 43.0233 160.362 43.5567 160.255L45.6767 159.855L46.1567 156.095C46.2367 155.509 46.3833 155.122 46.5967 154.935C46.81 154.749 47.21 154.655 47.7967 154.655H48.3167C48.9033 154.655 49.29 154.749 49.4767 154.935C49.6633 155.122 49.7567 155.509 49.7567 156.095V159.855H55.3567C56.0233 159.855 56.4633 159.962 56.6767 160.175C56.9167 160.389 57.0367 160.842 57.0367 161.535V162.015C57.0367 162.709 56.9167 163.162 56.6767 163.375C56.4633 163.589 56.0233 163.695 55.3567 163.695H49.7567V172.775C49.7567 175.095 50.7967 176.255 52.8767 176.255C54.0767 176.255 55.1567 176.135 56.1167 175.895C56.7833 175.762 57.2233 175.789 57.4367 175.975C57.65 176.162 57.7567 176.602 57.7567 177.295V177.775C57.7567 178.442 57.65 178.909 57.4367 179.175C57.2233 179.442 56.7833 179.642 56.1167 179.775C54.89 179.989 53.81 180.095 52.8767 180.095C48.0767 180.095 45.6767 177.642 45.6767 172.735V163.695H43.5967C43.0367 163.695 42.6633 163.602 42.4767 163.415C42.29 163.229 42.1967 162.855 42.1967 162.295ZM61.0397 160.255L60.9197 160.215C60.5731 160.109 60.3997 159.829 60.3997 159.375C60.3997 158.309 60.4397 157.242 60.5197 156.175C60.7864 152.095 61.7197 150.055 63.3197 150.055C63.8797 150.055 64.3197 150.255 64.6397 150.655C64.9597 151.029 65.1197 151.535 65.1197 152.175C65.1197 153.055 64.7464 154.255 63.9997 155.775C63.2797 157.375 62.5997 158.695 61.9597 159.735C61.6664 160.189 61.3597 160.362 61.0397 160.255ZM67.2875 177.495V176.975C67.2875 176.282 67.3942 175.842 67.6075 175.655C67.8208 175.442 68.2475 175.415 68.8875 175.575C70.7542 176.082 72.7008 176.335 74.7275 176.335C76.0875 176.335 77.0475 176.215 77.6075 175.975C78.1675 175.709 78.4475 175.255 78.4475 174.615C78.4475 174.109 78.2742 173.695 77.9275 173.375C77.5808 173.055 76.9008 172.669 75.8875 172.215L71.5675 170.295C70.1275 169.655 69.1008 168.935 68.4875 168.135C67.9008 167.335 67.6075 166.242 67.6075 164.855C67.6075 162.989 68.2208 161.615 69.4475 160.735C70.6742 159.855 72.6075 159.415 75.2475 159.415C76.9008 159.415 78.4475 159.615 79.8875 160.015C80.6075 160.229 81.0608 160.455 81.2475 160.695C81.4608 160.935 81.5675 161.375 81.5675 162.015V162.495C81.5675 163.189 81.4475 163.642 81.2075 163.855C80.9942 164.042 80.5675 164.042 79.9275 163.855C78.4875 163.429 76.9008 163.215 75.1675 163.215C73.8875 163.215 72.9808 163.349 72.4475 163.615C71.9142 163.855 71.6475 164.269 71.6475 164.855C71.6475 165.335 71.7808 165.722 72.0475 166.015C72.3142 166.282 72.8075 166.575 73.5275 166.895L78.1675 168.895C79.7142 169.535 80.8075 170.282 81.4475 171.135C82.1142 171.989 82.4475 173.122 82.4475 174.535C82.4475 176.455 81.7942 177.869 80.4875 178.775C79.2075 179.682 77.1675 180.135 74.3675 180.135C72.4742 180.135 70.6475 179.909 68.8875 179.455C68.2208 179.269 67.7808 179.055 67.5675 178.815C67.3808 178.575 67.2875 178.135 67.2875 177.495ZM114.492 159.335L115.892 177.855C115.945 178.602 115.852 179.095 115.612 179.335C115.399 179.575 114.919 179.695 114.172 179.695H113.572C112.825 179.695 112.319 179.575 112.052 179.335C111.812 179.095 111.665 178.602 111.612 177.855L110.332 159.375C110.279 158.522 110.145 157.949 109.932 157.655C109.745 157.362 109.412 157.215 108.932 157.215C108.505 157.215 108.185 157.375 107.972 157.695C107.785 157.989 107.639 158.549 107.532 159.375L105.372 175.455C105.159 177.082 104.732 178.202 104.092 178.815C103.479 179.402 102.425 179.695 100.932 179.695C99.5455 179.695 98.5055 179.375 97.8121 178.735C97.1455 178.095 96.7055 177.002 96.4921 175.455L94.2921 159.375C94.1855 158.575 94.0255 158.015 93.8121 157.695C93.5988 157.375 93.2788 157.215 92.8521 157.215C92.0521 157.215 91.5988 157.935 91.4921 159.375L90.2521 177.855C90.2255 178.575 90.0788 179.069 89.8121 179.335C89.5455 179.575 89.0388 179.695 88.2921 179.695H87.6921C86.9455 179.695 86.4521 179.575 86.2121 179.335C85.9988 179.095 85.9188 178.602 85.9721 177.855L87.3321 159.335C87.4921 157.255 87.9988 155.762 88.8521 154.855C89.7321 153.922 91.0521 153.455 92.8121 153.455C94.4655 153.455 95.7055 153.909 96.5321 154.815C97.3588 155.722 97.9055 157.229 98.1721 159.335L100.052 174.775C100.132 175.389 100.225 175.789 100.332 175.975C100.439 176.135 100.639 176.215 100.932 176.215C101.199 176.215 101.385 176.135 101.492 175.975C101.599 175.789 101.692 175.389 101.772 174.775L103.652 159.335C103.919 157.255 104.465 155.762 105.292 154.855C106.145 153.922 107.385 153.455 109.012 153.455C110.799 153.455 112.119 153.909 112.972 154.815C113.825 155.722 114.332 157.229 114.492 159.335ZM136.632 167.695C136.632 167.802 136.605 168.389 136.552 169.455C136.472 170.202 136.298 170.695 136.032 170.935C135.765 171.175 135.258 171.295 134.512 171.295H123.392V172.175C123.392 173.642 123.832 174.695 124.712 175.335C125.618 175.949 127.085 176.255 129.112 176.255C130.845 176.255 132.578 176.042 134.312 175.615C134.952 175.455 135.378 175.482 135.592 175.695C135.832 175.882 135.952 176.322 135.952 177.015V177.535C135.952 178.202 135.845 178.655 135.632 178.895C135.445 179.109 135.005 179.309 134.312 179.495C132.792 179.922 131.058 180.135 129.112 180.135C125.725 180.135 123.232 179.455 121.632 178.095C120.058 176.709 119.272 174.535 119.272 171.575V168.095C119.272 162.309 122.232 159.415 128.152 159.415C130.925 159.415 133.032 160.122 134.472 161.535C135.912 162.922 136.632 164.975 136.632 167.695ZM123.392 166.935V167.935H132.752V166.935C132.752 164.295 131.178 162.975 128.032 162.975C124.938 162.975 123.392 164.295 123.392 166.935ZM157.739 167.695C157.739 167.802 157.713 168.389 157.659 169.455C157.579 170.202 157.406 170.695 157.139 170.935C156.873 171.175 156.366 171.295 155.619 171.295H144.499V172.175C144.499 173.642 144.939 174.695 145.819 175.335C146.726 175.949 148.193 176.255 150.219 176.255C151.953 176.255 153.686 176.042 155.419 175.615C156.059 175.455 156.486 175.482 156.699 175.695C156.939 175.882 157.059 176.322 157.059 177.015V177.535C157.059 178.202 156.953 178.655 156.739 178.895C156.553 179.109 156.113 179.309 155.419 179.495C153.899 179.922 152.166 180.135 150.219 180.135C146.833 180.135 144.339 179.455 142.739 178.095C141.166 176.709 140.379 174.535 140.379 171.575V168.095C140.379 162.309 143.339 159.415 149.259 159.415C152.033 159.415 154.139 160.122 155.579 161.535C157.019 162.922 157.739 164.975 157.739 167.695ZM144.499 166.935V167.935H153.859V166.935C153.859 164.295 152.286 162.975 149.139 162.975C146.046 162.975 144.499 164.295 144.499 166.935ZM160.287 162.295V161.895C160.287 161.335 160.38 160.949 160.567 160.735C160.753 160.522 161.113 160.362 161.647 160.255L163.767 159.855L164.247 156.095C164.327 155.509 164.473 155.122 164.687 154.935C164.9 154.749 165.3 154.655 165.887 154.655H166.407C166.993 154.655 167.38 154.749 167.567 154.935C167.753 155.122 167.847 155.509 167.847 156.095V159.855H173.447C174.113 159.855 174.553 159.962 174.767 160.175C175.007 160.389 175.127 160.842 175.127 161.535V162.015C175.127 162.709 175.007 163.162 174.767 163.375C174.553 163.589 174.113 163.695 173.447 163.695H167.847V172.775C167.847 175.095 168.887 176.255 170.967 176.255C172.167 176.255 173.247 176.135 174.207 175.895C174.873 175.762 175.313 175.789 175.527 175.975C175.74 176.162 175.847 176.602 175.847 177.295V177.775C175.847 178.442 175.74 178.909 175.527 179.175C175.313 179.442 174.873 179.642 174.207 179.775C172.98 179.989 171.9 180.095 170.967 180.095C166.167 180.095 163.767 177.642 163.767 172.735V163.695H161.687C161.127 163.695 160.753 163.602 160.567 163.415C160.38 163.229 160.287 162.855 160.287 162.295Z" fill="#F42F5E"/>
<defs>
<linearGradient id="paint0_linear_0_6" x1="49.7513" y1="15.1843" x2="127.155" y2="104.704" gradientUnits="userSpaceOnUse">
<stop stop-color="#FF4873"/>
<stop offset="0.573882" stop-color="#F02656"/>
<stop offset="1" stop-color="#F02656"/>
</linearGradient>
</defs>
</svg>
