<svg width="37" height="36" viewBox="0 0 37 36" fill="none" xmlns="http://www.w3.org/2000/svg">
<rect x="0.25" width="36" height="36" rx="14" fill="#F02656"/>
<path d="M18.5042 8.48779C13.2513 8.48779 8.99219 12.7469 8.99219 17.9998C8.99219 23.2526 13.2513 27.5126 18.5042 27.5126C23.757 27.5126 28.017 23.2526 28.017 17.9998C28.017 12.7469 23.757 8.48779 18.5042 8.48779ZM20.4844 23.2301C19.9948 23.4234 19.605 23.5699 19.3127 23.6714C18.9848 23.7785 18.6413 23.8299 18.2964 23.8236C17.7037 23.8236 17.2423 23.6786 16.9137 23.3895C16.5852 23.1004 16.4217 22.734 16.4217 22.2887C16.4217 22.1156 16.4338 21.9384 16.458 21.758C16.4878 21.5526 16.5273 21.3486 16.5763 21.1468L17.1891 18.9822C17.2431 18.7745 17.2898 18.5772 17.3269 18.3936C17.3639 18.2083 17.3816 18.0384 17.3816 17.8838C17.3816 17.6084 17.3244 17.4151 17.2109 17.3064C17.0957 17.1977 16.8791 17.1446 16.5562 17.1446C16.3984 17.1446 16.2357 17.1679 16.069 17.217C15.9039 17.2678 15.7606 17.3137 15.643 17.3588L15.8049 16.692C16.2059 16.5285 16.59 16.3884 16.9564 16.2725C17.2915 16.1604 17.642 16.1011 17.9952 16.0969C18.5839 16.0969 19.0381 16.2402 19.3578 16.5237C19.6759 16.808 19.8361 17.1776 19.8361 17.6318C19.8361 17.726 19.8248 17.8919 19.8031 18.1286C19.7842 18.3499 19.7432 18.5686 19.6807 18.7817L19.0711 20.9399C19.0165 21.1351 18.9716 21.3329 18.9366 21.5326C18.9034 21.6987 18.8838 21.8673 18.8778 22.0367C18.8778 22.3233 18.9414 22.519 19.0703 22.6229C19.1975 22.7268 19.4206 22.7791 19.7363 22.7791C19.8852 22.7791 20.0519 22.7526 20.2404 22.701C20.4272 22.6495 20.5625 22.6036 20.6478 22.5641L20.4844 23.2301ZM20.3765 14.4702C20.0993 14.7316 19.7306 14.8739 19.3497 14.8664C18.9503 14.8664 18.6056 14.7344 18.319 14.4702C18.1826 14.3503 18.0737 14.2024 17.9997 14.0367C17.9256 13.8709 17.8881 13.6911 17.8897 13.5095C17.8897 13.1351 18.0347 12.813 18.319 12.5464C18.5967 12.2829 18.9669 12.1392 19.3497 12.1462C19.7499 12.1462 20.093 12.2791 20.3765 12.5464C20.6607 12.813 20.8033 13.1351 20.8033 13.5095C20.8033 13.8856 20.6607 14.2061 20.3765 14.4702Z" fill="white"/>
</svg>
