<svg width="27" height="26" viewBox="0 0 27 26" fill="none" xmlns="http://www.w3.org/2000/svg">
<path d="M14.9414 12.9999L21.5662 6.37512C22.0331 5.90827 22.0331 5.15023 21.5662 4.68339C21.0994 4.21654 20.3413 4.21654 19.8745 4.68339L13.2497 11.3082L6.62487 4.68339C6.15803 4.21654 5.39999 4.21654 4.93314 4.68339C4.4663 5.15023 4.4663 5.90827 4.93314 6.37512L11.5579 12.9999L4.93314 19.6247C4.4663 20.0916 4.4663 20.8496 4.93314 21.3165C5.39999 21.7833 6.15803 21.7833 6.62487 21.3165L13.2497 14.6917L19.8745 21.3165C20.3413 21.7833 21.0994 21.7833 21.5662 21.3165C22.0331 20.8496 22.0331 20.0916 21.5662 19.6247L14.9414 12.9999Z" fill="white"/>
</svg>
