<svg width="21" height="22" viewBox="0 0 21 22" fill="none" xmlns="http://www.w3.org/2000/svg">
<path fill-rule="evenodd" clip-rule="evenodd" d="M6.75 0C3.43629 0 0.75 2.68629 0.75 6V22H14.75C18.0637 22 20.75 19.3137 20.75 16V6C20.75 2.68629 18.0637 0 14.75 0H6.75ZM6.96429 1.60976C4.479 1.60976 2.46429 3.62447 2.46429 6.10975V20.3902H14.5357C17.021 20.3902 19.0357 18.3755 19.0357 15.8902V6.10976C19.0357 3.62448 17.021 1.60976 14.5357 1.60976H6.96429ZM12.7267 13.8605H6.68023C6.16648 13.8605 5.75 13.444 5.75 12.9302C5.75 12.4165 6.16648 12 6.68023 12H12.7267C13.2405 12 13.657 12.4165 13.657 12.9302C13.657 13.444 13.2405 13.8605 12.7267 13.8605ZM6.68023 9.86047H15.0523C15.5661 9.86047 15.9826 9.44399 15.9826 8.93023C15.9826 8.41648 15.5661 8 15.0523 8H6.68023C6.16648 8 5.75 8.41648 5.75 8.93023C5.75 9.44399 6.16648 9.86047 6.68023 9.86047Z" fill="#F02656"/>
</svg>
