<svg width="45" height="44" viewBox="0 0 45 44" fill="none" xmlns="http://www.w3.org/2000/svg">
<path d="M22.6802 41.3605C33.4113 41.3605 42.1105 32.6613 42.1105 21.9302C42.1105 11.1992 33.4113 2.5 22.6802 2.5C11.9492 2.5 3.25 11.1992 3.25 21.9302C3.25 32.6613 11.9492 41.3605 22.6802 41.3605Z" fill="url(#paint0_linear_0_1305)" stroke="#262628" stroke-width="5"/>
<rect x="9.65723" y="8.90698" width="26.0465" height="26.0465" fill="#FF0000" fill-opacity="0.01"/>
<path fill-rule="evenodd" clip-rule="evenodd" d="M29.5887 15.845C29.5887 14.8917 30.376 14.1162 31.3438 14.1162C32.3116 14.1162 33.0989 14.8917 33.0989 15.845C33.0989 16.616 32.5804 17.263 31.8714 17.4852L30.8364 25.6412H15.3924L14.3574 17.4852C13.6483 17.263 13.1299 16.616 13.1299 15.845C13.1299 14.8917 13.9172 14.1162 14.885 14.1162C15.8528 14.1162 16.6401 14.8917 16.6401 15.845C16.6401 16.3823 16.3847 16.8571 15.9931 17.1744L19.0192 19.6958L22.0063 17.1744C21.6147 16.8571 21.3593 16.3823 21.3593 15.845C21.3593 14.8917 22.1466 14.1162 23.1144 14.1162C24.0822 14.1162 24.8695 14.8917 24.8695 15.845C24.8695 16.3823 24.6141 16.8571 24.2225 17.1744L27.2096 19.6958L30.2357 17.1744C29.8441 16.8571 29.5887 16.3823 29.5887 15.845ZM17.8491 23.3362C17.8491 23.6545 18.1111 23.9125 18.4341 23.9125C18.7572 23.9125 19.0192 23.6545 19.0192 23.3362C19.0192 23.0179 18.7572 22.76 18.4341 22.76C18.1111 22.76 17.8491 23.0179 17.8491 23.3362ZM23.1144 24.4887C22.1466 24.4887 21.3593 23.7132 21.3593 22.76C21.3593 21.8067 22.1466 21.0312 23.1144 21.0312C24.0822 21.0312 24.8695 21.8067 24.8695 22.76C24.8695 23.7132 24.0822 24.4887 23.1144 24.4887ZM27.2096 23.3362C27.2096 23.6545 27.4715 23.9125 27.7946 23.9125C28.1177 23.9125 28.3796 23.6545 28.3796 23.3362C28.3796 23.0179 28.1177 22.76 27.7946 22.76C27.4715 22.76 27.2096 23.0179 27.2096 23.3362ZM30.4067 26.8999H16.2747C15.6774 26.8999 15.1932 27.3847 15.1932 27.9827C15.1932 28.5807 15.6774 29.0655 16.2747 29.0655H30.4067C31.004 29.0655 31.4882 28.5807 31.4882 27.9827C31.4882 27.3847 31.004 26.8999 30.4067 26.8999ZM23.78 23.151C23.78 23.483 23.482 23.7521 23.1144 23.7521C22.7468 23.7521 22.4487 23.483 22.4487 23.151C22.4487 22.819 22.7468 22.5499 23.1144 22.5499C23.482 22.5499 23.78 22.819 23.78 23.151Z" fill="white"/>
<mask id="mask0_0_1305" style="mask-type:luminance" maskUnits="userSpaceOnUse" x="13" y="14" width="21" height="16">
<path fill-rule="evenodd" clip-rule="evenodd" d="M29.5887 15.845C29.5887 14.8917 30.376 14.1162 31.3438 14.1162C32.3116 14.1162 33.0989 14.8917 33.0989 15.845C33.0989 16.616 32.5804 17.263 31.8714 17.4852L30.8364 25.6412H15.3924L14.3574 17.4852C13.6483 17.263 13.1299 16.616 13.1299 15.845C13.1299 14.8917 13.9172 14.1162 14.885 14.1162C15.8528 14.1162 16.6401 14.8917 16.6401 15.845C16.6401 16.3823 16.3847 16.8571 15.9931 17.1744L19.0192 19.6958L22.0063 17.1744C21.6147 16.8571 21.3593 16.3823 21.3593 15.845C21.3593 14.8917 22.1466 14.1162 23.1144 14.1162C24.0822 14.1162 24.8695 14.8917 24.8695 15.845C24.8695 16.3823 24.6141 16.8571 24.2225 17.1744L27.2096 19.6958L30.2357 17.1744C29.8441 16.8571 29.5887 16.3823 29.5887 15.845ZM17.8491 23.3362C17.8491 23.6545 18.1111 23.9125 18.4341 23.9125C18.7572 23.9125 19.0192 23.6545 19.0192 23.3362C19.0192 23.0179 18.7572 22.76 18.4341 22.76C18.1111 22.76 17.8491 23.0179 17.8491 23.3362ZM23.1144 24.4887C22.1466 24.4887 21.3593 23.7132 21.3593 22.76C21.3593 21.8067 22.1466 21.0312 23.1144 21.0312C24.0822 21.0312 24.8695 21.8067 24.8695 22.76C24.8695 23.7132 24.0822 24.4887 23.1144 24.4887ZM27.2096 23.3362C27.2096 23.6545 27.4715 23.9125 27.7946 23.9125C28.1177 23.9125 28.3796 23.6545 28.3796 23.3362C28.3796 23.0179 28.1177 22.76 27.7946 22.76C27.4715 22.76 27.2096 23.0179 27.2096 23.3362ZM30.4067 26.8999H16.2747C15.6774 26.8999 15.1932 27.3847 15.1932 27.9827C15.1932 28.5807 15.6774 29.0655 16.2747 29.0655H30.4067C31.004 29.0655 31.4882 28.5807 31.4882 27.9827C31.4882 27.3847 31.004 26.8999 30.4067 26.8999ZM23.78 23.151C23.78 23.483 23.482 23.7521 23.1144 23.7521C22.7468 23.7521 22.4487 23.483 22.4487 23.151C22.4487 22.819 22.7468 22.5499 23.1144 22.5499C23.482 22.5499 23.78 22.819 23.78 23.151Z" fill="white"/>
</mask>
<g mask="url(#mask0_0_1305)">
<rect x="9.65723" y="8.90698" width="26.0465" height="26.0465" fill="white"/>
</g>
<defs>
<linearGradient id="paint0_linear_0_1305" x1="22.6802" y1="55.7907" x2="56.5407" y2="21.9302" gradientUnits="userSpaceOnUse">
<stop stop-color="#E21F70"/>
<stop offset="1" stop-color="#FF4D2C"/>
</linearGradient>
</defs>
</svg>
