<svg width="21" height="22" viewBox="0 0 21 22" fill="none" xmlns="http://www.w3.org/2000/svg">
<path fill-rule="evenodd" clip-rule="evenodd" d="M6.25 0C2.93629 0 0.25 2.68629 0.25 6V16C0.25 19.3137 2.93629 22 6.25 22H14.25C17.5637 22 20.25 19.3137 20.25 16V6C20.25 2.68629 17.5637 0 14.25 0H6.25ZM6.46429 1.60976C3.979 1.60976 1.96429 3.62447 1.96429 6.10975V15.8902C1.96429 18.3755 3.979 20.3902 6.46428 20.3902H14.0357C16.521 20.3902 18.5357 18.3755 18.5357 15.8902V6.10976C18.5357 3.62448 16.521 1.60976 14.0357 1.60976H6.46429ZM10.25 4.33333C11.7458 4.33333 12.9583 5.5459 12.9583 7.04167C12.9583 8.53744 11.7458 9.75 10.25 9.75C8.75423 9.75 7.54167 8.53744 7.54167 7.04167C7.54167 5.5459 8.75423 4.33333 10.25 4.33333ZM10.25 17.6682C12.2146 17.6682 14.0791 16.8017 15.3458 15.3C15.6621 14.9057 15.7098 14.3598 15.4667 13.9167C14.3802 12.0757 12.3873 10.9615 10.25 11C8.11266 10.9615 6.11984 12.0757 5.03333 13.9167C4.79023 14.3598 4.83792 14.9057 5.15417 15.3C6.42087 16.8017 8.28543 17.6682 10.25 17.6682Z" fill="#F02656"/>
</svg>
