<svg width="148" height="147" viewBox="0 0 148 147" fill="none" xmlns="http://www.w3.org/2000/svg">
<g opacity="0.96">
<g filter="url(#filter0_d_0_416)">
<path fill-rule="evenodd" clip-rule="evenodd" d="M58.1473 131.44C90.1552 140.017 123.055 121.022 131.632 89.0138C140.208 57.0059 121.214 24.1057 89.2055 15.5291C57.1976 6.95263 24.2974 25.9476 15.7209 57.9555C7.14435 89.9635 26.1393 122.864 58.1473 131.44Z" fill="white"/>
</g>
<path d="M104.999 72.4966L104.97 72.4889C107.411 62.776 102.508 52.2226 93.6025 49.8363C88.4509 48.456 83.1256 50.1706 78.9845 53.6737C77.1498 48.5694 73.3953 44.4218 68.2437 43.0415C59.3379 40.6551 49.8157 47.3435 47.0726 56.9753L47.0437 56.9675C47.0274 57.0284 47.0225 57.085 47.0071 57.1425C46.9954 57.1865 46.9739 57.2278 46.9612 57.2751C46.8888 57.5456 46.8947 57.7682 46.8378 58.032C41.0284 82.8941 66.2006 100.469 66.2006 100.469C66.2006 100.469 97.1943 97.9545 104.629 73.5569C104.718 73.2874 104.841 73.0883 104.917 72.8043C104.929 72.757 104.932 72.7104 104.943 72.6665C104.961 72.6022 104.984 72.5541 104.999 72.4966Z" fill="#F63563"/>
<mask id="mask0_0_416" style="mask-type:luminance" maskUnits="userSpaceOnUse" x="45" y="42" width="61" height="59">
<path d="M104.999 72.4966L104.97 72.4889C107.411 62.776 102.508 52.2226 93.6025 49.8363C88.4509 48.456 83.1256 50.1706 78.9845 53.6737C77.1498 48.5694 73.3953 44.4218 68.2437 43.0415C59.3379 40.6551 49.8157 47.3435 47.0726 56.9753L47.0437 56.9675C47.0274 57.0284 47.0225 57.085 47.0071 57.1425C46.9954 57.1865 46.9739 57.2278 46.9612 57.2751C46.8888 57.5456 46.8947 57.7682 46.8378 58.032C41.0284 82.8941 66.2006 100.469 66.2006 100.469C66.2006 100.469 97.1943 97.9545 104.629 73.5569C104.718 73.2874 104.841 73.0883 104.917 72.8043C104.929 72.757 104.932 72.7104 104.943 72.6665C104.961 72.6022 104.984 72.5541 104.999 72.4966Z" fill="white"/>
</mask>
<g mask="url(#mask0_0_416)">
</g>
</g>
<defs>
<filter id="filter0_d_0_416" x="3.66113" y="5.46973" width="140.03" height="140.03" filterUnits="userSpaceOnUse" color-interpolation-filters="sRGB">
<feFlood flood-opacity="0" result="BackgroundImageFix"/>
<feColorMatrix in="SourceAlpha" type="matrix" values="0 0 0 0 0 0 0 0 0 0 0 0 0 0 0 0 0 0 127 0" result="hardAlpha"/>
<feOffset dy="2"/>
<feGaussianBlur stdDeviation="5"/>
<feColorMatrix type="matrix" values="0 0 0 0 0 0 0 0 0 0 0 0 0 0 0 0 0 0 0.128114 0"/>
<feBlend mode="normal" in2="BackgroundImageFix" result="effect1_dropShadow_0_416"/>
<feBlend mode="normal" in="SourceGraphic" in2="effect1_dropShadow_0_416" result="shape"/>
</filter>
</defs>
</svg>
