<svg width="27" height="26" viewBox="0 0 27 26" fill="none" xmlns="http://www.w3.org/2000/svg">
<path fill-rule="evenodd" clip-rule="evenodd" d="M20.2825 4.60625L23.5325 9.1562L23.6495 9.5072C23.6625 10.9502 22.4925 12.1332 21.0495 12.1332C20.2695 12.1332 19.5805 11.7952 19.0995 11.2492C18.6186 11.7952 17.9296 12.1332 17.1496 12.1332C16.3696 12.1332 15.6806 11.7952 15.1996 11.2492C14.7186 11.7952 14.0296 12.1332 13.2496 12.1332C12.4696 12.1332 11.7806 11.7952 11.2996 11.2492C10.8186 11.7952 10.1296 12.1332 9.34965 12.1332C8.56966 12.1332 7.88066 11.7952 7.39967 11.2492C6.91867 11.7952 6.22968 12.1332 5.44969 12.1332C4.0067 12.1332 2.83672 10.9502 2.84972 9.5072L2.96672 9.1562L6.21668 4.60625C6.34668 4.43725 6.54168 4.33325 6.74968 4.33325H19.7495C19.9575 4.33325 20.1525 4.43725 20.2825 4.60625ZM11.9496 18.6331H6.74969V14.7331H11.9496V18.6331ZM15.1996 12.908C16.3747 13.5878 17.9244 13.5878 19.0996 12.908C19.6871 13.2486 20.3592 13.4331 21.0495 13.4331C21.5006 13.4331 21.9361 13.3422 22.3495 13.1953V19.9331C22.3495 20.6507 21.7671 21.2331 21.0495 21.2331H19.7496V14.7331H15.8496V21.2331H5.4497C4.73211 21.2331 4.14972 20.6507 4.14972 19.9331V13.1797C5.2144 13.5475 6.42339 13.4747 7.39968 12.908C8.57357 13.5878 10.1258 13.5878 11.2996 12.908C12.4735 13.5878 14.0244 13.5878 15.1996 12.908Z" fill="white"/>
</svg>
