<svg width="100" height="100" viewBox="0 0 100 100" fill="none" xmlns="http://www.w3.org/2000/svg">
<path fill-rule="evenodd" clip-rule="evenodd" d="M80.7426 29.0893H68.8423L61.7208 21.817C61.7208 21.817 61.6841 21.7804 61.6678 21.7804L61.6312 21.7437C60.576 20.6763 59.15 20 57.5286 20H42.7193C40.9919 20 39.46 20.7496 38.3845 21.9433V21.9596L31.4219 29.0893H19.2567C15.9771 29.0893 13.333 31.6926 13.333 35.0089V71.0319C13.333 74.3441 15.9771 77.037 19.2567 77.037H80.7426C84.0019 77.037 86.6663 74.3441 86.6663 71.0319V35.0089C86.6663 31.6926 84.006 29.0893 80.7426 29.0893ZM49.9996 68.0374C41.0285 68.0374 33.7115 60.6226 33.7115 51.5333C33.7115 42.4237 41.0285 35.0293 49.9996 35.0293C58.9911 35.0293 66.2878 42.4278 66.2878 51.5333C66.2878 60.6226 58.9911 68.0374 49.9996 68.0374Z" fill="#C1C0C9"/>
</svg>
