<svg width="81" height="81" viewBox="0 0 81 81" fill="none" xmlns="http://www.w3.org/2000/svg">
<g filter="url(#filter0_d_0_492)">
<path fill-rule="evenodd" clip-rule="evenodd" d="M40.9082 68.002C57.4767 68.002 70.9082 54.5705 70.9082 38.002C70.9082 21.4334 57.4767 8.00195 40.9082 8.00195C24.3397 8.00195 10.9082 21.4334 10.9082 38.002C10.9082 54.5705 24.3397 68.002 40.9082 68.002Z" fill="white"/>
</g>
<path fill-rule="evenodd" clip-rule="evenodd" d="M45.5852 49.6843C45.4195 49.8502 45.371 49.8917 45.2739 49.9806L42.5642 52.5575C41.9237 53.1501 40.8959 53.1501 40.2553 52.5575L37.5273 49.9687C37.4309 49.8798 37.3856 49.8324 37.2312 49.6843C30.344 47.7365 26.0168 41.3367 27.0639 34.6476C28.1111 27.9584 34.2161 23.002 41.4082 23.002C48.6003 23.002 54.7053 27.9584 55.7525 34.6476C56.7996 41.3367 52.4724 47.7365 45.5852 49.6843ZM35.7434 35.1585C34.6798 35.1722 33.8282 35.9917 33.8385 36.9916C33.8487 37.9914 34.717 38.7953 35.7806 38.7897C36.8443 38.7842 37.7029 37.9712 37.7013 36.9713C37.6974 36.4868 37.489 36.0235 37.1218 35.6836C36.7546 35.3436 36.2587 35.1547 35.7434 35.1585ZM41.4073 35.1585C40.3436 35.1719 39.4917 35.9912 39.5017 36.9912C39.5118 37.9911 40.38 38.7952 41.4437 38.7898C42.5074 38.7843 43.3662 37.9713 43.3645 36.9713C43.3607 36.4869 43.1523 36.0237 42.7853 35.6838C42.4182 35.3438 41.9225 35.1549 41.4073 35.1585ZM47.0705 35.1585C46.0068 35.1715 45.1546 35.9908 45.1644 36.9908C45.1742 37.9908 46.0423 38.7951 47.1061 38.7898C48.1699 38.7844 49.0288 37.9713 49.0272 36.9713C49.0189 35.9629 48.1431 35.1516 47.0705 35.1585Z" fill="#4A90E2"/>
<defs>
<filter id="filter0_d_0_492" x="0.908203" y="0.00195312" width="80" height="80" filterUnits="userSpaceOnUse" color-interpolation-filters="sRGB">
<feFlood flood-opacity="0" result="BackgroundImageFix"/>
<feColorMatrix in="SourceAlpha" type="matrix" values="0 0 0 0 0 0 0 0 0 0 0 0 0 0 0 0 0 0 127 0" result="hardAlpha"/>
<feOffset dy="2"/>
<feGaussianBlur stdDeviation="5"/>
<feColorMatrix type="matrix" values="0 0 0 0 0 0 0 0 0 0 0 0 0 0 0 0 0 0 0.128114 0"/>
<feBlend mode="normal" in2="BackgroundImageFix" result="effect1_dropShadow_0_492"/>
<feBlend mode="normal" in="SourceGraphic" in2="effect1_dropShadow_0_492" result="shape"/>
</filter>
</defs>
</svg>
