<svg width="329" height="545" viewBox="0 0 329 545" fill="none" xmlns="http://www.w3.org/2000/svg">
<rect x="0.796875" y="0.457764" width="328" height="544" rx="16" fill="#F02656"/>
<mask id="mask0_120_2718" style="mask-type:luminance" maskUnits="userSpaceOnUse" x="0" y="0" width="329" height="545">
<rect x="0.796875" y="0.457764" width="328" height="544" rx="16" fill="white"/>
</mask>
<g mask="url(#mask0_120_2718)">
<path opacity="0.05" fill-rule="evenodd" clip-rule="evenodd" d="M554.134 245.478C503.164 314.119 418.536 334.694 352.641 301.552C286.745 268.409 358.036 163.864 268.666 127.524C179.297 91.1838 245.677 36.8542 237.995 -49.3381C230.312 -135.53 239.404 -206.949 298.955 -201.634C358.507 -196.319 369.86 -137.076 379.058 -83.4383C388.256 -29.8004 451.16 -17.825 522.443 38.5945C593.726 95.014 605.105 176.836 554.134 245.478Z" fill="black"/>
<path fill-rule="evenodd" clip-rule="evenodd" d="M-161.685 223.555C-205.398 272.513 -202.269 335.585 -151.539 383.22C-100.808 430.856 -53.4598 444.087 -50.0777 485.548C-46.6957 527.008 -42.0466 572.879 3.18933 580.818C48.4253 588.757 60.2612 534.947 60.2612 468.787C60.2612 402.627 114.797 365.578 48.8468 332.057C-17.1029 298.536 44.6193 223.555 -3.57474 194.003C-51.7688 164.452 -117.972 174.596 -161.685 223.555Z" fill="black" fill-opacity="0.05"/>
</g>
<path fill-rule="evenodd" clip-rule="evenodd" d="M192.506 82.2199C192.085 81.0082 189.586 79.8119 188.536 79.5489C188.037 79.424 187.472 79.2533 186.869 79.0703C186.039 78.8181 185.136 78.545 184.249 78.3464C185.164 80.2176 187.268 82.7886 189.321 83.7141C190.257 84.1361 191.048 84.1431 191.67 83.7358C192.668 83.0818 192.581 82.5698 192.553 82.4015C192.543 82.341 192.527 82.2805 192.506 82.2199M174.104 92.5332L174.382 91.6783C175.786 92.1345 177.41 91.8017 178.519 90.8288C179.628 89.8552 180.17 88.2889 179.9 86.8397C179.759 86.088 179.423 85.3789 179.068 84.6272C178.575 83.5838 178.065 82.5039 178.109 81.2921C178.168 79.6684 178.672 78.5063 179.608 77.8391C180.494 77.206 181.661 77.0842 182.91 77.2115C182.907 77.1967 182.906 77.1828 182.903 77.168C182.611 75.1362 183.349 73.1021 184.982 71.4396C186.892 69.4924 189.71 68.4304 192.16 68.7321C194.722 69.0487 197.112 70.7515 198.246 73.0688L197.438 73.4637C196.434 71.4109 194.318 69.9036 192.049 69.6235C189.868 69.3543 187.345 70.314 185.623 72.0688C184.192 73.5265 183.542 75.2914 183.793 77.04C183.807 77.1362 183.828 77.2402 183.858 77.3503C184.967 77.5544 186.1 77.8988 187.13 78.2107C187.718 78.3891 188.268 78.5559 188.754 78.6777C189.846 78.9508 193.119 80.3619 193.439 82.2517C193.536 82.8258 193.395 83.6807 192.163 84.4876C191.279 85.0663 190.169 85.0818 188.952 84.5326C186.628 83.486 184.046 80.3519 183.179 78.1471C181.982 77.9779 180.885 78.0315 180.129 78.5699C179.423 79.0734 179.057 79.974 179.007 81.3239C178.972 82.3177 179.414 83.2525 179.881 84.2432C180.244 85.0143 180.622 85.8103 180.783 86.6745C181.111 88.4301 180.456 90.3246 179.113 91.5038C177.769 92.6806 175.804 93.0856 174.104 92.5332" fill="#FE9400"/>
<path fill-rule="evenodd" clip-rule="evenodd" d="M296.928 148.443C305.594 147.837 311.341 153.394 308.042 163.045C304.742 172.697 295.588 172.907 291.715 165.249L292.905 163.396C292.905 163.396 300.155 175.937 306.005 163.586C311.955 151.025 296.424 150.315 296.424 150.315L296.928 148.443Z" fill="#0F80E0"/>
<mask id="mask1_120_2718" style="mask-type:luminance" maskUnits="userSpaceOnUse" x="296" y="145" width="19" height="13">
<path fill-rule="evenodd" clip-rule="evenodd" d="M296.424 145.309H314.031V157.036H296.424V145.309Z" fill="white"/>
</mask>
<g mask="url(#mask1_120_2718)">
<path fill-rule="evenodd" clip-rule="evenodd" d="M310.527 145.309L314.031 146.249C314.031 146.249 313.416 154.773 306.56 156.737C299.705 158.703 296.424 150.315 296.424 150.315L296.927 148.444C296.927 148.444 301.546 157.989 307.401 154.347C312.282 151.311 310.527 145.309 310.527 145.309" fill="#0FEAFC"/>
</g>
<path fill-rule="evenodd" clip-rule="evenodd" d="M292.906 163.396C303.325 163.624 301.012 174.066 296.428 179.341C290.47 186.198 279.633 181.861 279.994 173.166L282.405 173.024C282.405 173.024 282.239 179.893 289.62 180.392C297 180.892 300.131 170.066 297.966 167.015C295.801 163.963 292.269 165.103 292.269 165.103L292.906 163.396Z" fill="#0FEAFC"/>
<path fill-rule="evenodd" clip-rule="evenodd" d="M89.0674 104.597L94.2886 108.032L96.071 104.597L90.0863 101.672L89.0674 104.597Z" fill="#FFC534"/>
<path fill-rule="evenodd" clip-rule="evenodd" d="M262.783 145.415L266.985 148.468L268.131 142.363L265.457 141.854L262.783 145.415Z" fill="#FFC534"/>
<path fill-rule="evenodd" clip-rule="evenodd" d="M68.0645 145.161L68.7005 147.196H73.921L70.2289 143.126L68.0645 145.161Z" fill="#FFC534"/>
<path fill-rule="evenodd" clip-rule="evenodd" d="M257.233 97.3825L257.869 99.4174H263.09L259.398 95.3477L257.233 97.3825Z" fill="#FFC534"/>
<path fill-rule="evenodd" clip-rule="evenodd" d="M240.154 58.7638L243.083 60.3534V52.7856H240.154V58.7638Z" fill="#FFC534"/>
<path fill-rule="evenodd" clip-rule="evenodd" d="M147.215 63.8449L149.125 65.3708L154.472 61.81L151.671 60.0295L147.215 63.8449Z" fill="#FFC534"/>
<path fill-rule="evenodd" clip-rule="evenodd" d="M234.409 110.854V113.525H237.72L236.064 110.854H234.409Z" fill="#FFC534"/>
<path fill-rule="evenodd" clip-rule="evenodd" d="M270.014 123.326L275.234 126.759L277.016 123.326L271.033 120.4L270.014 123.326Z" fill="#0FEAFC"/>
<path fill-rule="evenodd" clip-rule="evenodd" d="M199.405 40.9996L201.188 39.4736L206.79 40.237L204.626 41.5085L199.405 40.9996Z" fill="#0FEAFC"/>
<path fill-rule="evenodd" clip-rule="evenodd" d="M87.2207 82.4647L91.4222 85.5174L92.5685 79.412L89.8946 78.9031L87.2207 82.4647Z" fill="#0FEAFC"/>
<path fill-rule="evenodd" clip-rule="evenodd" d="M196.477 85.4391L199.405 87.0295V79.4617H196.477V85.4391Z" fill="#0FEAFC"/>
<path fill-rule="evenodd" clip-rule="evenodd" d="M31.9961 131.349L33.9058 132.876L39.2536 129.314L36.4524 127.534L31.9961 131.349Z" fill="#0FEAFC"/>
<path fill-rule="evenodd" clip-rule="evenodd" d="M133.8 36.7929L134.691 39.2095L140.93 38.0016L138.766 33.8674L133.8 36.7929Z" fill="#0FEAFC"/>
<path fill-rule="evenodd" clip-rule="evenodd" d="M295.486 95.5903L299.561 96.7051C299.561 96.7051 302.656 87.3041 291.794 85.6082C284.51 84.4702 281.021 94.0775 285.173 97.4366L287.083 98.3342C287.083 98.3342 284.282 93.7548 287.21 89.2963C290.138 84.8387 298.797 89.0388 295.486 95.5903" fill="#23951D"/>
<path fill-rule="evenodd" clip-rule="evenodd" d="M287.082 98.3342C294.467 96.1643 291.993 82.3391 282.498 78.7123C273.204 75.1623 269.228 85.5151 269.228 85.5151L270.785 86.3708C270.785 86.3708 274.394 77.1561 281.96 80.9C297.141 88.4127 285.172 97.4366 285.172 97.4366L287.082 98.3342Z" fill="#56FB4D"/>
<path fill-rule="evenodd" clip-rule="evenodd" d="M64.2678 79.4593C68.199 89.2536 58.3173 99.9664 50.8772 96.9936C43.4372 94.0208 46.6167 87.9549 50.2241 86.6702L51.8752 87.7571C51.8752 87.7571 43.8736 92.4646 51.622 95.5297C59.3688 98.5948 64.8743 88.1799 62.518 78.8069L64.2678 79.4593Z" fill="#FE9400"/>
<path fill-rule="evenodd" clip-rule="evenodd" d="M69.1863 97.6796L70.992 99.4081C70.992 99.4081 67.7084 106.545 59.383 102.431C51.0576 98.3173 52.1255 81.2493 62.5175 78.8071L64.2672 79.4596C64.2672 79.4596 49.7397 86.3167 56.8691 97.7665C62.7877 107.272 69.1863 97.6796 69.1863 97.6796" fill="#FFC534"/>
<path fill-rule="evenodd" clip-rule="evenodd" d="M52.0726 87.5513C52.1915 93.8344 46.2317 95.6474 42.8122 90.064C39.3927 84.4815 45.1863 80.9175 48.6508 82.3954L48.779 84.12C48.779 84.12 41.3661 83.798 44.2124 88.9989C47.0588 94.1997 49.697 90.2456 50.2235 86.67L52.0726 87.5513Z" fill="#FFC534"/>
<path fill-rule="evenodd" clip-rule="evenodd" d="M40.763 188.774C38.51 191.033 35.0277 192.709 31.7992 192.784C30.1978 192.821 28.6555 192.463 27.3585 191.584C26.8894 191.269 26.4506 190.882 26.053 190.425C24.5479 188.686 23.5717 186.83 23.1399 185.038C22.9745 184.361 22.889 183.693 22.8813 183.042V183.008C22.8751 182.408 22.938 181.826 23.0653 181.266C23.3698 179.942 24.0501 178.751 25.1156 177.792C26.1299 176.879 27.4812 176.429 28.8473 176.429H31.9414L33.3214 177.788C33.3214 177.788 32.6131 177.637 31.5771 177.614C30.0782 177.577 27.9014 177.805 26.2231 179.138C25.3618 179.823 24.8259 180.675 24.5728 181.605C24.391 182.258 24.3483 182.948 24.4252 183.648C24.8322 187.342 28.6019 191.226 33.1816 190.638C33.7455 190.567 34.3194 190.428 34.8995 190.212C37.1168 189.394 38.573 188.166 39.5197 186.847C41.7843 183.707 41.1871 180.032 41.1871 180.032L42.9562 182.431C43.6932 184.551 42.6665 186.87 40.763 188.774" fill="#2BD5E6"/>
<path fill-rule="evenodd" clip-rule="evenodd" d="M48.1981 190.958C41.0982 191.972 40.5911 198.393 46.1696 202.527C51.7473 206.661 56.4808 199.768 56.4808 199.768L55.4657 198.557C55.4657 198.557 51.0437 204.432 47.423 201.916C43.8032 199.401 42.1249 192.793 49.6403 193.227L48.1981 190.958Z" fill="#2BD5E6"/>
<path fill-rule="evenodd" clip-rule="evenodd" d="M33.3216 177.788C33.3216 177.788 31.2651 185.723 24.4254 183.648C23.9361 183.499 23.4212 183.298 22.8814 183.042C22.8752 183.037 22.8698 183.034 22.8636 183.034C22.3572 182.789 21.8283 182.494 21.2762 182.141C20.6479 181.744 19.9846 181.269 19.2942 180.715C17.5243 179.294 16.4059 177.851 15.7979 176.429H18.8733C18.8958 176.489 18.9183 176.551 18.9432 176.611C20.0025 179.243 21.4812 180.667 23.0655 181.266C23.3249 181.368 23.5897 181.446 23.8538 181.499C24.093 181.55 24.3345 181.585 24.5729 181.605C27.552 181.837 30.5506 179.698 31.5773 177.614C31.7769 177.211 31.905 176.81 31.9415 176.429L33.3216 177.788Z" fill="#F72C53"/>
<path fill-rule="evenodd" clip-rule="evenodd" d="M41.1879 180.034C31.8017 183.866 31.206 189.582 36.1531 196.18C41.0986 202.778 50.7458 199.379 49.6407 193.227L48.1977 190.958C48.1977 190.958 48.4276 197.465 43.4448 197.924C38.4612 198.38 33.9451 192.646 34.8437 187.947C35.7423 183.249 41.4062 182.431 41.4062 182.431L41.1879 180.034Z" fill="#157EDB"/>
<path fill-rule="evenodd" clip-rule="evenodd" d="M76.7939 186.61L81.6774 189.822L83.3448 186.61L77.7469 183.875L76.7939 186.61Z" fill="#F72C53"/>
<path fill-rule="evenodd" clip-rule="evenodd" d="M211.083 69.7675L212.75 68.3401L217.991 69.0538L215.966 70.2439L211.083 69.7675Z" fill="#F72C53"/>
<path fill-rule="evenodd" clip-rule="evenodd" d="M294.165 199.783L298.096 202.638L299.167 196.927L296.667 196.452L294.165 199.783Z" fill="#F72C53"/>
<mask id="mask2_120_2718" style="mask-type:luminance" maskUnits="userSpaceOnUse" x="251" y="31" width="4" height="6">
<path fill-rule="evenodd" clip-rule="evenodd" d="M251.318 31.7798H254.772V36.5391H251.318V31.7798Z" fill="white"/>
</mask>
<g mask="url(#mask2_120_2718)">
<path fill-rule="evenodd" clip-rule="evenodd" d="M251.318 35.7058L252.39 31.7795L254.772 33.7431L254.057 36.539L251.318 35.7058Z" fill="#69FF5B"/>
</g>
<path fill-rule="evenodd" clip-rule="evenodd" d="M295.281 104.019L296.353 100.092L298.735 102.056L298.02 104.852L295.281 104.019Z" fill="#F72C53"/>
<path fill-rule="evenodd" clip-rule="evenodd" d="M134.626 95.4553L137.364 96.9425V89.8643H134.626V95.4553Z" fill="#F72C53"/>
<path fill-rule="evenodd" clip-rule="evenodd" d="M236.064 77.2002L237.851 78.6277L242.853 75.2965L240.233 73.6309L236.064 77.2002Z" fill="#69FF5B"/>
<path fill-rule="evenodd" clip-rule="evenodd" d="M43.2354 170.467L45.0224 171.895L50.0238 168.564L47.4035 166.898L43.2354 170.467Z" fill="#F72C53"/>
<path fill-rule="evenodd" clip-rule="evenodd" d="M166.372 65.4468L167.095 67.7447L172.979 66.8998L171.144 62.9395L166.372 65.4468Z" fill="#69FF5B"/>
<path fill-rule="evenodd" clip-rule="evenodd" d="M103.567 87.2672L104.401 89.5278L110.237 88.3975L108.212 84.531L103.567 87.2672Z" fill="#69FF5B"/>
</svg>
