<svg width="21" height="20" viewBox="0 0 21 20" fill="none" xmlns="http://www.w3.org/2000/svg">
<path d="M20.1448 1.32084L11.0551 19.5002C10.8942 19.8316 10.6243 19.9973 10.2456 19.9973C10.1982 19.9973 10.1272 19.9878 10.0325 19.9689C9.82424 19.9215 9.65618 19.815 9.52835 19.6493C9.40053 19.4836 9.33662 19.2966 9.33662 19.0883V10.9076H1.15592C0.947618 10.9076 0.760617 10.8437 0.59492 10.7159C0.429223 10.588 0.322704 10.42 0.275362 10.2117C0.22802 10.0034 0.246956 9.80453 0.332172 9.61516C0.417388 9.42579 0.554679 9.28376 0.744048 9.18908L18.9234 0.0994186C19.0465 0.033139 19.1838 0 19.3352 0C19.5909 0 19.8039 0.08995 19.9744 0.269849C20.1164 0.402407 20.204 0.565737 20.2371 0.759839C20.2703 0.953941 20.2395 1.14094 20.1448 1.32084Z" fill="#C1C0C9"/>
</svg>
