<svg width="39" height="39" viewBox="0 0 39 39" fill="none" xmlns="http://www.w3.org/2000/svg">
<path fill-rule="evenodd" clip-rule="evenodd" d="M19.0872 38.767C29.542 38.767 38.0172 30.2917 38.0172 19.837C38.0172 9.38223 29.542 0.906982 19.0872 0.906982C8.63248 0.906982 0.157227 9.38223 0.157227 19.837C0.157227 30.2917 8.63248 38.767 19.0872 38.767Z" fill="white"/>
<path fill-rule="evenodd" clip-rule="evenodd" d="M19.1572 36.907C28.5461 36.907 36.1572 29.2958 36.1572 19.907C36.1572 10.5181 28.5461 2.90698 19.1572 2.90698C9.76839 2.90698 2.15723 10.5181 2.15723 19.907C2.15723 29.2958 9.76839 36.907 19.1572 36.907Z" fill="url(#paint0_linear_0_1515)"/>
<path fill-rule="evenodd" clip-rule="evenodd" d="M25.523 14.3C25.523 13.4216 26.2485 12.707 27.1402 12.707C28.032 12.707 28.7574 13.4216 28.7574 14.3C28.7574 15.0104 28.2797 15.6066 27.6264 15.8113L26.6727 23.3265H12.4422L11.4884 15.8113C10.8351 15.6066 10.3574 15.0104 10.3574 14.3C10.3574 13.4216 11.0829 12.707 11.9746 12.707C12.8664 12.707 13.5918 13.4216 13.5918 14.3C13.5918 14.7951 13.3565 15.2326 12.9957 15.5249L15.784 17.8482L18.5364 15.5249C18.1756 15.2326 17.9402 14.7951 17.9402 14.3C17.9402 13.4216 18.6657 12.707 19.5574 12.707C20.4492 12.707 21.1746 13.4216 21.1746 14.3C21.1746 14.7951 20.9393 15.2326 20.5785 15.5249L23.3309 17.8482L26.1192 15.5249C25.7584 15.2326 25.523 14.7951 25.523 14.3ZM14.7059 21.2026C14.7059 21.4958 14.9472 21.7336 15.2449 21.7336C15.5426 21.7336 15.784 21.4958 15.784 21.2026C15.784 20.9093 15.5426 20.6716 15.2449 20.6716C14.9472 20.6716 14.7059 20.9093 14.7059 21.2026ZM19.5574 22.2645C18.6657 22.2645 17.9402 21.55 17.9402 20.6716C17.9402 19.7933 18.6657 19.0787 19.5574 19.0787C20.4492 19.0787 21.1746 19.7933 21.1746 20.6716C21.1746 21.55 20.4492 22.2645 19.5574 22.2645ZM23.3309 21.2026C23.3309 21.4958 23.5722 21.7336 23.8699 21.7336C24.1676 21.7336 24.409 21.4958 24.409 21.2026C24.409 20.9093 24.1676 20.6716 23.8699 20.6716C23.5722 20.6716 23.3309 20.9093 23.3309 21.2026ZM26.2768 24.4863H13.2551C12.7047 24.4863 12.2586 24.933 12.2586 25.484C12.2586 26.035 12.7047 26.4818 13.2551 26.4818H26.2768C26.8272 26.4818 27.2733 26.035 27.2733 25.484C27.2733 24.933 26.8272 24.4863 26.2768 24.4863ZM20.1708 21.0319C20.1708 21.3378 19.8962 21.5858 19.5574 21.5858C19.2187 21.5858 18.9441 21.3378 18.9441 21.0319C18.9441 20.726 19.2187 20.4781 19.5574 20.4781C19.8962 20.4781 20.1708 20.726 20.1708 21.0319Z" fill="white"/>
<defs>
<linearGradient id="paint0_linear_0_1515" x1="19.1572" y1="53.907" x2="53.1572" y2="19.907" gradientUnits="userSpaceOnUse">
<stop stop-color="#E21F70"/>
<stop offset="1" stop-color="#FF4D2C"/>
</linearGradient>
</defs>
</svg>
