<svg width="28" height="28" viewBox="0 0 28 28" fill="none" xmlns="http://www.w3.org/2000/svg">
<path fill-rule="evenodd" clip-rule="evenodd" d="M22.1818 4H5.81818C4.81364 4 4 4.81364 4 5.81818V22.1818C4 23.1864 4.81364 24 5.81818 24H14.9091V15.8182H12.1818V13.0909H14.9091V11.6264C14.9091 8.85364 16.26 7.63636 18.5645 7.63636C19.6682 7.63636 20.2518 7.71818 20.5282 7.75545V10.3636H18.9564C17.9782 10.3636 17.6364 10.88 17.6364 11.9255V13.0909H20.5036L20.1145 15.8182H17.6364V24H22.1818C23.1864 24 24 23.1864 24 22.1818V5.81818C24 4.81364 23.1855 4 22.1818 4Z" fill="white"/>
</svg>
