<svg width="30" height="30" viewBox="0 0 30 30" fill="none" xmlns="http://www.w3.org/2000/svg">
<mask id="path-1-outside-1_0_146" maskUnits="userSpaceOnUse" x="0" y="0" width="30" height="30" fill="black">
<rect fill="white" width="30" height="30"/>
<path fill-rule="evenodd" clip-rule="evenodd" d="M3 15C3 8.37258 8.37258 3 15 3C18.1826 3 21.2348 4.26428 23.4853 6.51472C25.7357 8.76515 27 11.8174 27 15C27 21.6274 21.6274 27 15 27C8.37258 27 3 21.6274 3 15ZM16.5 15.5H20C20.5523 15.5 21 15.0523 21 14.5C21 13.9477 20.5523 13.5 20 13.5H16.5V10C16.5 9.44772 16.0523 9 15.5 9C14.9477 9 14.5 9.44772 14.5 10V13.5H11C10.4477 13.5 10 13.9477 10 14.5C10 15.0523 10.4477 15.5 11 15.5H14.5V19C14.5 19.5523 14.9477 20 15.5 20C16.0523 20 16.5 19.5523 16.5 19V15.5Z"/>
</mask>
<path fill-rule="evenodd" clip-rule="evenodd" d="M3 15C3 8.37258 8.37258 3 15 3C18.1826 3 21.2348 4.26428 23.4853 6.51472C25.7357 8.76515 27 11.8174 27 15C27 21.6274 21.6274 27 15 27C8.37258 27 3 21.6274 3 15ZM16.5 15.5H20C20.5523 15.5 21 15.0523 21 14.5C21 13.9477 20.5523 13.5 20 13.5H16.5V10C16.5 9.44772 16.0523 9 15.5 9C14.9477 9 14.5 9.44772 14.5 10V13.5H11C10.4477 13.5 10 13.9477 10 14.5C10 15.0523 10.4477 15.5 11 15.5H14.5V19C14.5 19.5523 14.9477 20 15.5 20C16.0523 20 16.5 19.5523 16.5 19V15.5Z" fill="#FF2D55"/>
<path d="M23.4853 6.51472L21.364 8.63604V8.63604L23.4853 6.51472ZM16.5 15.5V12.5H13.5V15.5H16.5ZM16.5 13.5H13.5V16.5H16.5V13.5ZM14.5 13.5V16.5H17.5V13.5H14.5ZM14.5 15.5H17.5V12.5H14.5V15.5ZM15 0C6.71573 0 0 6.71573 0 15H6C6 10.0294 10.0294 6 15 6V0ZM25.6066 4.3934C22.7936 1.58035 18.9782 0 15 0V6C17.3869 6 19.6761 6.94821 21.364 8.63604L25.6066 4.3934ZM30 15C30 11.0218 28.4196 7.20644 25.6066 4.3934L21.364 8.63604C23.0518 10.3239 24 12.6131 24 15H30ZM15 30C23.2843 30 30 23.2843 30 15H24C24 19.9706 19.9706 24 15 24V30ZM0 15C0 23.2843 6.71573 30 15 30V24C10.0294 24 6 19.9706 6 15H0ZM20 12.5H16.5V18.5H20V12.5ZM18 14.5C18 13.3954 18.8954 12.5 20 12.5V18.5C22.2091 18.5 24 16.7091 24 14.5H18ZM20 16.5C18.8954 16.5 18 15.6046 18 14.5H24C24 12.2909 22.2091 10.5 20 10.5V16.5ZM16.5 16.5H20V10.5H16.5V16.5ZM13.5 10V13.5H19.5V10H13.5ZM15.5 12C14.3954 12 13.5 11.1046 13.5 10H19.5C19.5 7.79086 17.7091 6 15.5 6V12ZM17.5 10C17.5 11.1046 16.6046 12 15.5 12V6C13.2909 6 11.5 7.79086 11.5 10H17.5ZM17.5 13.5V10H11.5V13.5H17.5ZM11 16.5H14.5V10.5H11V16.5ZM13 14.5C13 15.6046 12.1046 16.5 11 16.5V10.5C8.79086 10.5 7 12.2909 7 14.5H13ZM11 12.5C12.1046 12.5 13 13.3954 13 14.5H7C7 16.7091 8.79086 18.5 11 18.5V12.5ZM14.5 12.5H11V18.5H14.5V12.5ZM17.5 19V15.5H11.5V19H17.5ZM15.5 17C16.6046 17 17.5 17.8954 17.5 19H11.5C11.5 21.2091 13.2909 23 15.5 23V17ZM13.5 19C13.5 17.8954 14.3954 17 15.5 17V23C17.7091 23 19.5 21.2091 19.5 19H13.5ZM13.5 15.5V19H19.5V15.5H13.5Z" fill="white" mask="url(#path-1-outside-1_0_146)"/>
</svg>
