<svg width="37" height="37" viewBox="0 0 37 37" fill="none" xmlns="http://www.w3.org/2000/svg">
<rect x="0.25" y="0.684326" width="36" height="36" rx="14" fill="#4C63D9"/>
<path d="M27.4203 12.4595C27.403 12.268 27.332 12.0853 27.2156 11.9323C27.0991 11.7793 26.9419 11.6623 26.762 11.5947L18.718 8.577C18.6264 8.53134 18.5286 8.49964 18.4276 8.48295C18.2038 8.43975 17.9718 8.47438 17.7703 8.58109L9.73962 11.5947C9.55967 11.6623 9.40245 11.7793 9.286 11.9323C9.16955 12.0853 9.09861 12.268 9.0813 12.4595C9.07108 12.578 8.12039 24.3348 17.6753 28.7356C17.8653 28.8614 18.0922 28.9194 18.3193 28.9001C18.4849 28.8899 18.6495 28.8388 18.7967 28.7499C28.3832 24.3594 27.4315 12.578 27.4203 12.4595ZM23.0788 16.3194L18.7036 20.894C18.6096 20.9923 18.4969 21.071 18.3721 21.1252C18.2473 21.1794 18.1129 21.2082 17.9768 21.2098H17.9656C17.6945 21.2098 17.4345 21.102 17.2429 20.9103L15.1984 18.8658C15.1007 18.7715 15.0229 18.6587 14.9693 18.534C14.9157 18.4093 14.8875 18.2752 14.8863 18.1394C14.8852 18.0037 14.911 17.8691 14.9624 17.7435C15.0138 17.6178 15.0897 17.5037 15.1857 17.4077C15.2817 17.3117 15.3958 17.2358 15.5215 17.1844C15.6471 17.133 15.7817 17.1072 15.9174 17.1084C16.0532 17.1095 16.1873 17.1377 16.312 17.1913C16.4367 17.2449 16.5495 17.3228 16.6438 17.4204L17.9492 18.7258L21.6017 14.9067C21.6936 14.8062 21.8046 14.725 21.9283 14.668C22.052 14.611 22.1858 14.5793 22.3219 14.5747C22.458 14.5701 22.5937 14.5928 22.7209 14.6414C22.8481 14.6899 22.9644 14.7635 23.0628 14.8576C23.1612 14.9517 23.2399 15.0646 23.2941 15.1895C23.3483 15.3144 23.3769 15.449 23.3784 15.5851C23.3799 15.7213 23.3542 15.8564 23.3027 15.9825C23.2513 16.1086 23.1752 16.2232 23.0788 16.3194Z" fill="white"/>
</svg>
