<svg width="44" height="44" viewBox="0 0 44 44" fill="none" xmlns="http://www.w3.org/2000/svg">
<path fill-rule="evenodd" clip-rule="evenodd" d="M22.25 43C33.848 43 43.25 33.598 43.25 22C43.25 10.402 33.848 1 22.25 1C10.652 1 1.25 10.402 1.25 22C1.25 33.598 10.652 43 22.25 43Z" fill="black" fill-opacity="0.5" stroke="white"/>
<path fill-rule="evenodd" clip-rule="evenodd" d="M10.5837 21.2573L13.5732 24.2834C14.035 24.7426 14.781 24.7426 15.2428 24.2834L18.0758 21.9564C18.5454 21.5547 19.0306 20.5529 18.3054 19.9008C17.812 19.4114 17.0208 19.3976 16.5106 19.8695L15.3524 20.8608C15.7084 16.5241 19.4519 13.2588 23.7967 13.4952C28.1416 13.7316 31.5087 17.3838 31.3921 21.7335C31.2755 26.0832 27.7176 29.5497 23.3663 29.5529C21.7436 29.5557 20.1593 29.0603 18.8272 28.1338C18.2995 27.7667 17.5743 27.895 17.2045 28.4208C17.0261 28.6717 16.956 28.9839 17.01 29.287C17.0639 29.5902 17.2374 29.859 17.4915 30.0329C19.2159 31.2315 21.2663 31.8725 23.3663 31.8695C29.009 31.906 33.6585 27.4501 33.8619 21.8109C34.0652 16.1717 29.7486 11.3925 24.1179 11.0226C18.4872 10.6526 13.5825 14.826 13.0463 20.4434L12.248 19.6295C11.794 19.1751 11.059 19.1705 10.5993 19.619C10.3793 19.8338 10.254 20.1274 10.251 20.4349C10.2481 20.7424 10.3678 21.0383 10.5837 21.2573Z" fill="white"/>
</svg>
