<svg width="37" height="37" viewBox="0 0 37 37" fill="none" xmlns="http://www.w3.org/2000/svg">
<rect x="0.25" y="0.456299" width="36" height="36" rx="14" fill="#4CD964"/>
<path fill-rule="evenodd" clip-rule="evenodd" d="M11.9897 15.0084C12.7472 11.4982 15.9757 8.85632 19.8415 8.85632C24.2755 8.85632 27.8642 12.3204 27.8504 16.5927C27.8504 18.1307 27.3839 19.5671 26.5802 20.7726C26.5715 20.785 26.5625 20.7974 26.5535 20.8098C26.5287 20.8439 26.5035 20.8786 26.4832 20.9158C26.3862 21.082 26.3308 21.276 26.3308 21.4792L27.116 24.8879L23.9475 23.6962C23.8044 23.6362 23.6473 23.6039 23.4811 23.6039C23.3333 23.6039 23.1855 23.6316 23.0515 23.6824C23.0515 23.687 23.0469 23.687 23.0423 23.687C23.0307 23.6916 23.0203 23.6962 23.0099 23.7008C22.9996 23.7055 22.9892 23.7101 22.9776 23.7147C22.622 23.8579 22.2525 23.9687 21.8784 24.0657C21.2271 24.232 20.5482 24.329 19.8415 24.329C15.4076 24.329 11.8188 20.865 11.8188 16.5927C11.8188 16.0476 11.8789 15.5211 11.9897 15.0084ZM9.94825 25.1696C9.94825 24.9941 9.90206 24.837 9.81892 24.6985C9.81199 24.6869 9.80506 24.6751 9.79814 24.6633C9.77735 24.6278 9.75657 24.5923 9.73579 24.5645C9.0476 23.5346 8.65039 22.2968 8.65039 20.985C8.65039 19.0452 9.52333 17.3039 10.9089 16.0985C10.7981 16.6111 10.738 17.1377 10.738 17.6827C10.738 21.955 14.3314 25.419 18.7607 25.419C19.4628 25.419 20.1463 25.322 20.7976 25.1557C19.5413 26.6383 17.6338 27.5852 15.4953 27.5852C14.5485 27.5852 13.6432 27.3958 12.8211 27.0586C12.8118 27.054 12.8026 27.0506 12.7934 27.0471C12.7841 27.0436 12.7749 27.0402 12.7657 27.0355H12.7564C12.641 26.994 12.5162 26.9709 12.3869 26.9709C12.2437 26.9709 12.1098 26.9986 11.9851 27.0494L9.38938 28.0701L9.94825 25.1696Z" fill="white"/>
</svg>
