<svg width="22" height="23" viewBox="0 0 22 23" fill="none" xmlns="http://www.w3.org/2000/svg">
<path fill-rule="evenodd" clip-rule="evenodd" d="M18.25 0C16.317 0 14.75 1.567 14.75 3.5C14.75 5.433 16.317 7 18.25 7C20.183 7 21.75 5.433 21.75 3.5C21.75 1.567 20.183 0 18.25 0ZM12.75 1.21951C12.75 1.14574 12.7525 1.07254 12.7574 1H6.75C3.43629 1 0.75 3.68629 0.75 7V17C0.75 20.3137 3.43629 23 6.75 23H14.75C18.0637 23 20.75 20.3137 20.75 17V8.99263C20.6775 8.99752 20.6043 9 20.5305 9H19.0357V16.8902C19.0357 19.3755 17.021 21.3902 14.5357 21.3902H6.96428C4.479 21.3902 2.46429 19.3755 2.46429 16.8902V7.10975C2.46429 4.62447 4.479 2.60976 6.96429 2.60976H12.75V1.21951Z" fill="#8E8E93"/>
</svg>
