<svg width="233" height="52" viewBox="0 0 233 52" fill="none" xmlns="http://www.w3.org/2000/svg">
<path fill-rule="evenodd" clip-rule="evenodd" d="M37.2063 51.4576C37.2063 51.4576 11.7526 39.3202 0.470703 29.7861L17.5372 25.453L12.6201 6.3855C12.6201 6.3855 32.2892 16.6387 49.9335 21.6241L34.0243 39.608L37.2063 51.4576Z" fill="#FF577F"/>
<path fill-rule="evenodd" clip-rule="evenodd" d="M26.793 32.2234L37.2057 51.4577L49.933 21.6243L26.793 32.2234Z" fill="#C60D39"/>
<path fill-rule="evenodd" clip-rule="evenodd" d="M195.679 51.4576C195.679 51.4576 221.133 39.3202 232.415 29.7861L215.348 25.453L220.266 6.3855C220.266 6.3855 200.596 16.6387 182.952 21.6241L198.861 39.608L195.679 51.4576Z" fill="#FF577F"/>
<path fill-rule="evenodd" clip-rule="evenodd" d="M206.092 32.2234L195.679 51.4577L182.952 21.6243L206.092 32.2234Z" fill="#C60D39"/>
<path fill-rule="evenodd" clip-rule="evenodd" d="M26.7969 32.6509C26.7969 32.6509 54.565 51.3034 116.447 51.3034C178.328 51.3034 206.097 32.6509 206.097 32.6509L191.055 0.457764C191.055 0.457764 165.89 16.9251 116.447 16.9251C67.0034 16.9251 41.8378 0.457764 41.8378 0.457764L26.7969 32.6509Z" fill="#FF6D90"/>
<path fill-rule="evenodd" clip-rule="evenodd" d="M188.351 21.4083C188.351 23.7269 186.469 25.6064 184.148 25.6064C181.826 25.6064 179.944 23.7269 179.944 21.4083C179.944 19.0897 181.826 17.2102 184.148 17.2102C186.469 17.2102 188.351 19.0897 188.351 21.4083" fill="white"/>
<path fill-rule="evenodd" clip-rule="evenodd" d="M50.8588 21.4083C50.8588 23.7269 48.9769 25.6064 46.6555 25.6064C44.334 25.6064 42.4521 23.7269 42.4521 21.4083C42.4521 19.0897 44.334 17.2102 46.6555 17.2102C48.9769 17.2102 50.8588 19.0897 50.8588 21.4083" fill="white"/>
<path fill-rule="evenodd" clip-rule="evenodd" d="M69.6462 23.873C69.9671 22.6543 69.0641 21.9861 68.056 21.7126C66.8463 21.3832 65.8079 21.3027 64.6477 25.3308C64.5266 25.7515 64.4477 26.1483 64.9484 26.2898C65.8463 26.5436 69.3111 25.1446 69.6462 23.873M70.025 20.0077C72.7502 20.7252 72.8021 22.9512 72.5442 23.9974C71.3743 28.7504 64.3714 27.6456 63.7338 29.8568C63.3087 31.3313 63.3216 33.6499 63.2912 33.7557C63.2314 33.9669 62.8311 33.7968 62.7057 33.7613C61.7471 33.49 61.2683 33.3507 60.3121 33.0665C59.863 32.9334 59.2231 33.101 61.2402 26.5548C63.8975 17.9311 64.658 18.5038 64.9387 18.5871C66.9666 19.1867 67.9842 19.4709 70.025 20.0077" fill="white"/>
<path fill-rule="evenodd" clip-rule="evenodd" d="M71.487 35.801C70.871 35.643 70.4516 36.1175 71.7383 30.1913C72.8163 25.2322 72.932 24.0902 73.3732 24.1861C73.8904 24.3213 74.1498 24.3876 74.6678 24.5182C74.9024 24.5771 75.1878 24.569 75.1479 24.9019C75.1159 25.1676 75.0856 25.5285 75.4004 25.6058C75.6355 25.6637 75.9635 25.4309 76.3463 25.2315C76.7202 25.037 77.1592 24.8408 77.5815 24.9381C78.3792 25.1226 78.8927 26.061 78.7166 27.0359C78.487 28.2997 77.4381 28.8549 76.9586 28.7446C76.7666 28.7005 77.2184 27.5484 76.1249 27.2884C74.792 26.9716 74.203 29.3666 73.983 30.4443C73.2528 34.0182 73.5168 35.6791 73.4442 35.9898C73.38 36.2664 73.0027 36.1829 72.8197 36.1376C72.2865 36.0053 72.0194 35.9381 71.487 35.801" fill="white"/>
<path fill-rule="evenodd" clip-rule="evenodd" d="M80.3888 30.344C80.3573 30.5398 80.4027 30.751 80.603 30.7925C80.7878 30.8312 83.6973 30.668 83.827 29.7593C83.9514 28.8855 83.3217 28.2741 82.7456 28.1615C81.517 27.9219 80.5554 29.3141 80.3888 30.344M78.0103 31.6466C78.7568 27.36 81.1279 25.6846 83.1364 26.0752C84.7846 26.3959 86.0356 27.7403 85.7586 29.8477C85.2542 33.6881 80.3558 31.9347 80.0593 33.7823C79.9251 34.6175 81.0297 35.4689 81.8206 35.6222C84.4161 36.1246 84.7177 33.8696 84.9374 33.9077C85.1722 33.9486 85.0969 34.8849 85.0781 35.0278C84.7803 37.296 83.0329 38.3346 81.1094 37.9573C78.2394 37.3943 77.5169 34.4812 78.0103 31.6466" fill="white"/>
<path fill-rule="evenodd" clip-rule="evenodd" d="M87.6786 39.3989C87.058 39.3099 86.5932 39.8506 87.3484 34.322C88.4224 26.457 88.1668 26.684 90.4866 26.9972C90.8443 27.0454 91.2178 27.1136 91.1841 27.3938C91.1566 27.6184 90.9079 27.9477 90.8759 28.2098C90.8534 28.3964 91.0096 28.55 91.1815 28.5726C91.3874 28.5994 91.6653 28.41 92.0574 28.2468C92.4562 28.0797 92.9973 27.9267 93.7172 28.0097C94.5572 28.106 95.0214 29.0275 95.4521 29.0722C95.6936 29.0974 96.0479 29.0661 96.5001 28.8368C96.9437 28.6124 97.5091 28.4035 98.127 28.4583C101.286 28.7378 100.928 33.2402 100.774 35.6495C100.407 41.3917 99.7518 40.7026 99.2207 40.6617C98.722 40.6234 98.4729 40.6032 97.9747 40.5617C97.7911 40.5457 97.276 40.5393 97.3026 40.2005C97.3301 39.8628 98.1824 37.8527 98.4231 34.7119C98.6998 31.1201 97.5467 30.6419 96.8864 30.5792C96.2782 30.5221 95.7098 30.4071 95.4198 33.5055C94.7887 40.247 94.6967 40.2572 94.1106 40.1954C93.4518 40.1258 93.1226 40.0899 92.4642 40.0139C92.1174 39.974 91.8163 40.014 91.8447 39.752C91.8753 39.4702 92.9666 35.7815 93.1538 34.0003C93.2727 32.8749 93.5516 30.2361 92.1298 30.0609C90.8287 29.9011 90.1309 31.553 89.7872 34.3413C89.3224 38.1029 89.7444 38.8815 89.6814 39.4061C89.6432 39.7243 89.3212 39.6248 89.1199 39.5979C88.5433 39.5204 88.2547 39.4806 87.6786 39.3989" fill="white"/>
<path fill-rule="evenodd" clip-rule="evenodd" d="M103.921 25.8435C103.97 25.0401 104.673 24.5909 105.399 24.6243C106.127 24.6576 106.777 25.1689 106.741 25.973C106.705 26.7762 106.004 27.1809 105.266 27.1467C104.528 27.113 103.872 26.6468 103.921 25.8435M103.866 40.5292C102.894 40.4817 102.79 40.867 103.197 34.293C103.591 27.9065 103.851 28.5394 104.464 28.5699C104.873 28.5898 105.077 28.5994 105.487 28.6177C106.268 28.6522 106.283 28.7075 106.273 28.9319C106.241 29.6234 105.983 30.3055 105.885 32.3428C105.661 37.0515 106.295 39.9795 106.288 40.1474C106.261 40.7456 105.671 40.6109 105.214 40.5914C104.675 40.568 104.405 40.5558 103.866 40.5292" fill="white"/>
<path fill-rule="evenodd" clip-rule="evenodd" d="M114.939 28.8936C115.6 28.8876 115.669 32.5989 115.693 34.2783C115.786 40.7671 115.345 40.4778 114.136 40.4824C112.371 40.4887 113.712 39.4951 112.76 39.4902C112.609 39.4899 112.221 39.8697 111.92 40.068C111.627 40.2621 111.228 40.4676 110.674 40.4578C109.279 40.4331 108.011 39.4676 108.157 34.4133C108.165 34.1126 108.427 28.8157 109.088 28.8357C109.666 28.8521 109.956 28.8596 110.535 28.871C110.739 28.8749 111.165 28.7939 111.161 29.1476C111.157 29.4127 110.402 31.1676 110.349 34.5091C110.333 35.499 110.273 38.1929 111.7 38.2095C112.248 38.2155 113.509 38.0424 113.502 34.241C113.498 32.1187 112.941 29.395 112.941 29.1115C112.942 28.8815 113.303 28.9001 113.477 28.9006C114.062 28.9004 114.354 28.8993 114.939 28.8936" fill="white"/>
<path fill-rule="evenodd" clip-rule="evenodd" d="M119.092 40.3806C118.45 40.3989 118.066 40.9764 117.942 35.7093C117.765 28.2176 117.543 28.4696 119.941 28.3865C120.312 28.3735 120.7 28.3768 120.711 28.6429C120.72 28.8567 120.52 29.2029 120.531 29.4519C120.538 29.6295 120.72 29.7476 120.899 29.7405C121.111 29.7322 121.362 29.5109 121.733 29.2955C122.11 29.076 122.633 28.8459 123.376 28.8068C124.242 28.7614 124.861 29.544 125.305 29.5161C125.554 29.5002 125.908 29.4139 126.329 29.1277C126.743 28.8472 127.282 28.5614 127.918 28.5126C131.166 28.2631 131.53 32.5102 131.762 34.7779C132.313 40.1811 131.537 39.6455 130.991 39.6927C130.479 39.7374 130.223 39.759 129.711 39.8012C129.522 39.816 128.998 39.8926 128.971 39.5735C128.945 39.2543 129.486 37.2469 129.225 34.2846C128.927 30.897 127.681 30.6384 127.001 30.6875C126.375 30.7317 125.781 30.7164 125.985 33.6465C126.43 40.022 126.338 40.0468 125.734 40.084C125.055 40.1256 124.716 40.1451 124.037 40.1806C123.679 40.1994 123.38 40.2857 123.367 40.0367C123.353 39.7702 123.865 36.1606 123.768 34.473C123.708 33.4064 123.566 30.906 122.098 30.9725C120.754 31.0337 120.314 32.6839 120.413 35.3344C120.548 38.9095 121.1 39.5659 121.121 40.0639C121.133 40.3667 120.791 40.3258 120.583 40.333C119.987 40.3545 119.689 40.3637 119.092 40.3806" fill="white"/>
<path fill-rule="evenodd" clip-rule="evenodd" d="M143.76 25.9716C144.398 25.8498 145.033 29.4544 145.313 31.0864C146.396 37.393 145.925 37.1878 144.757 37.4038C143.054 37.7185 144.198 36.5161 143.276 36.6779C143.131 36.7036 142.815 37.1408 142.554 37.3869C142.3 37.6275 141.947 37.8969 141.411 37.9843C140.06 38.2035 138.69 37.484 138.057 32.5334C138.019 32.2392 137.462 27.0323 138.102 26.9362C138.663 26.8518 138.943 26.8079 139.504 26.7181C139.702 26.687 140.1 26.5333 140.15 26.8787C140.188 27.1374 139.728 28.9789 140.187 32.2443C140.323 33.212 140.677 35.8475 142.058 35.6144C142.587 35.5247 143.779 35.1364 143.19 31.4327C142.862 29.3663 141.907 26.809 141.863 26.5327C141.829 26.309 142.181 26.2639 142.348 26.2333C142.913 26.1316 143.196 26.0792 143.76 25.9716" fill="white"/>
<path fill-rule="evenodd" clip-rule="evenodd" d="M147.475 34.3578C147.321 33.5322 147.526 32.3979 147.661 32.3708C147.744 32.3542 148.674 34.936 151.079 34.4081C151.774 34.2554 152.506 33.7036 152.314 32.8129C151.927 31.015 147.52 32.4537 146.861 28.9609C146.457 26.8194 147.816 25.3459 149.546 24.9613C151.55 24.5167 152.95 25.5451 153.029 25.8931C153.105 26.2235 152.514 27.8534 152.139 27.9414C151.715 28.0408 151.325 26.7268 149.832 27.0573C149.329 27.1688 148.695 27.5601 148.801 28.0851C149.164 29.8891 153.961 28.7536 154.774 32.2856C155.295 34.5474 153.746 36.2897 151.687 36.7433C149.868 37.1442 147.857 36.4122 147.475 34.3578" fill="white"/>
<path fill-rule="evenodd" clip-rule="evenodd" d="M156.962 28.0029C157.012 28.194 157.146 28.3629 157.366 28.3053C157.57 28.2526 160.458 26.7283 160.211 25.8488C159.974 25.004 159.078 24.7517 158.447 24.9238C157.098 25.2892 156.702 26.9975 156.962 28.0029M155.092 30.2996C154.066 26.0887 155.771 23.4606 157.974 22.8614C159.783 22.37 161.617 22.9852 162.214 25.013C163.3 28.7072 157.591 29.4502 158.059 31.2532C158.27 32.0676 159.746 32.3118 160.613 32.0748C163.46 31.2983 162.83 29.1252 163.069 29.0552C163.325 28.9803 163.639 29.8592 163.68 29.9967C164.322 32.1777 162.975 33.9421 160.863 34.5128C157.713 35.365 155.771 33.0842 155.092 30.2996" fill="white"/>
<path fill-rule="evenodd" clip-rule="evenodd" d="M167.421 33.1499C166.876 33.3449 166.748 33.9618 165.28 28.3555C164.052 23.6637 163.667 22.6528 164.05 22.4996C164.509 22.3371 164.738 22.2551 165.196 22.089C165.403 22.0134 165.622 21.8551 165.729 22.1532C165.815 22.3913 165.943 22.7066 166.219 22.6038C166.426 22.5271 166.585 22.1603 166.801 21.7915C167.011 21.4313 167.272 21.0351 167.642 20.8917C168.341 20.6214 169.134 21.1277 169.403 22.0306C169.752 23.2022 169.163 24.2216 168.743 24.3845C168.575 24.4499 168.447 23.253 167.485 23.6173C166.314 24.0613 166.854 26.3637 167.132 27.3756C168.053 30.7325 168.95 31.972 169.023 32.2688C169.089 32.5327 168.76 32.6634 168.599 32.7233C168.128 32.8965 167.892 32.9816 167.421 33.1499" fill="white"/>
</svg>
