<svg width="22" height="22" viewBox="0 0 22 22" fill="none" xmlns="http://www.w3.org/2000/svg">
<path fill-rule="evenodd" clip-rule="evenodd" d="M9.58602 5.34318L10.2931 6.05029C10.6836 6.44081 11.3168 6.44081 11.7073 6.05029C12.0979 5.65976 12.0979 5.0266 11.7073 4.63607L11.0002 3.92897L12.4144 2.51475L14.5358 4.63607C14.9263 5.0266 15.5595 5.0266 15.95 4.63607C16.3405 4.24555 16.3405 3.61238 15.95 3.22186L13.8287 1.10054C14.6097 0.319491 15.876 0.319492 16.6571 1.10054L20.8997 5.34318C21.6808 6.12423 21.6808 7.39056 20.8997 8.17161L8.1718 20.8995C7.39076 21.6806 6.12443 21.6806 5.34338 20.8995L1.10074 16.6569C0.319688 15.8758 0.319688 14.6095 1.10074 13.8285L3.22206 15.9498C3.61258 16.3403 4.24575 16.3403 4.63627 15.9498C5.0268 15.5593 5.0268 14.9261 4.63627 14.5356L2.51495 12.4142L3.92916 11L4.63627 11.7071C5.0268 12.0977 5.65996 12.0977 6.05048 11.7071C6.44101 11.3166 6.44101 10.6835 6.05048 10.2929L5.34338 9.58582L6.75759 8.17161L8.87891 10.2929C9.26944 10.6835 9.9026 10.6835 10.2931 10.2929C10.6836 9.9024 10.6836 9.26924 10.2931 8.87871L8.1718 6.75739L9.58602 5.34318Z" fill="#F02656"/>
</svg>
