<svg width="21" height="22" viewBox="0 0 21 22" fill="none" xmlns="http://www.w3.org/2000/svg">
<path fill-rule="evenodd" clip-rule="evenodd" d="M0.75 6C0.75 2.68629 3.43629 0 6.75 0H14.75C18.0637 0 20.75 2.68629 20.75 6V16C20.75 19.3137 18.0637 22 14.75 22H6.75C3.43629 22 0.75 19.3137 0.75 16V6ZM2.46429 6.10975C2.46429 3.62447 4.479 1.60976 6.96429 1.60976H14.5357C17.021 1.60976 19.0357 3.62448 19.0357 6.10976V15.8902C19.0357 18.3755 17.021 20.3902 14.5357 20.3902H6.96428C4.479 20.3902 2.46429 18.3755 2.46429 15.8902V6.10975ZM7.96951 3.7561C6.19142 3.7561 4.75 5.19752 4.75 6.97561C4.75 8.7537 6.19142 10.1951 7.96951 10.1951H13.5305C15.3086 10.1951 16.75 8.7537 16.75 6.97561C16.75 5.19752 15.3086 3.7561 13.5305 3.7561H7.96951Z" fill="#F02656"/>
</svg>
