<svg width="21" height="22" viewBox="0 0 21 22" fill="none" xmlns="http://www.w3.org/2000/svg">
<path fill-rule="evenodd" clip-rule="evenodd" d="M6.75 0C3.43629 0 0.75 2.68629 0.75 6V16C0.75 19.3137 3.43629 22 6.75 22H14.75C18.0637 22 20.75 19.3137 20.75 16V6C20.75 2.68629 18.0637 0 14.75 0H6.75ZM6.96429 1.60976C4.479 1.60976 2.46429 3.62447 2.46429 6.10975V15.8902C2.46429 18.3755 4.479 20.3902 6.96428 20.3902H14.5357C17.021 20.3902 19.0357 18.3755 19.0357 15.8902V6.10976C19.0357 3.62448 17.021 1.60976 14.5357 1.60976H6.96429ZM10.75 4.33333C12.2458 4.33333 13.4583 5.5459 13.4583 7.04167C13.4583 8.53744 12.2458 9.75 10.75 9.75C9.25423 9.75 8.04167 8.53744 8.04167 7.04167C8.04167 5.5459 9.25423 4.33333 10.75 4.33333ZM10.75 17.6682C12.7146 17.6682 14.5791 16.8017 15.8458 15.3C16.1621 14.9057 16.2098 14.3598 15.9667 13.9167C14.8802 12.0757 12.8873 10.9615 10.75 11C8.61266 10.9615 6.61984 12.0757 5.53333 13.9167C5.29023 14.3598 5.33792 14.9057 5.65417 15.3C6.92087 16.8017 8.78543 17.6682 10.75 17.6682Z" fill="#8E8E93"/>
</svg>
