<svg width="26" height="16" viewBox="0 0 26 16" fill="none" xmlns="http://www.w3.org/2000/svg">
<path d="M24.937 7.72397C24.72 7.42709 19.5489 0.45459 12.9445 0.45459C6.34011 0.45459 1.1688 7.42709 0.952007 7.72369C0.851833 7.86092 0.797852 8.02644 0.797852 8.19635C0.797852 8.36625 0.851833 8.53177 0.952007 8.669C1.1688 8.96589 6.34011 15.9384 12.9445 15.9384C19.5489 15.9384 24.72 8.96584 24.937 8.66924C25.0373 8.53207 25.0914 8.36654 25.0914 8.19661C25.0914 8.02667 25.0373 7.86114 24.937 7.72397ZM12.9445 14.3366C8.07966 14.3366 3.86619 9.70884 2.61892 8.19594C3.86458 6.68172 8.06922 2.05635 12.9445 2.05635C17.8091 2.05635 22.0223 6.68333 23.2701 8.19703C22.0244 9.71121 17.8198 14.3366 12.9445 14.3366Z" fill="#6C6C6C"/>
<path d="M12.945 3.39111C10.2954 3.39111 8.13965 5.54684 8.13965 8.19645C8.13965 10.8461 10.2954 13.0018 12.945 13.0018C15.5946 13.0018 17.7503 10.8461 17.7503 8.19645C17.7503 5.54684 15.5946 3.39111 12.945 3.39111ZM12.945 11.4C11.1785 11.4 9.74146 9.96291 9.74146 8.19645C9.74146 6.42999 11.1785 4.99292 12.945 4.99292C14.7114 4.99292 16.1485 6.42999 16.1485 8.19645C16.1485 9.96291 14.7115 11.4 12.945 11.4Z" fill="#6C6C6C"/>
</svg>
