<svg width="18" height="17" viewBox="0 0 18 17" fill="none" xmlns="http://www.w3.org/2000/svg">
<path d="M15.4039 1.4099H14.6169V0.0981445H13.3051V1.4099H4.64751V0.0981445H3.33575V1.4099H2.54869C1.46374 1.4099 0.581055 2.29259 0.581055 3.37754V14.921C0.581055 16.006 1.46374 16.8887 2.54869 16.8887H15.4039C16.4889 16.8887 17.3716 16.006 17.3716 14.921V3.37754C17.3716 2.29259 16.4889 1.4099 15.4039 1.4099ZM16.0598 14.921C16.0598 15.2827 15.7656 15.5769 15.4039 15.5769H2.54869C2.18704 15.5769 1.89281 15.2827 1.89281 14.921V6.26342H16.0598V14.921ZM16.0598 4.95166H1.89281V3.37754C1.89281 3.01589 2.18704 2.72166 2.54869 2.72166H3.33575V4.03342H4.64751V2.72166H13.3051V4.03342H14.6169V2.72166H15.4039C15.7656 2.72166 16.0598 3.01589 16.0598 3.37754V4.95166Z" fill="#6C6C6C"/>
</svg>
