<svg width="375" height="285" viewBox="0 0 375 285" fill="none" xmlns="http://www.w3.org/2000/svg">
<g clip-path="url(#clip0_35_2220)">
<path fill-rule="evenodd" clip-rule="evenodd" d="M186.5 285C330.094 285 446.5 205.754 446.5 108C446.5 10.2456 330.094 -69 186.5 -69C42.906 -69 -73.5 10.2456 -73.5 108C-73.5 205.754 42.906 285 186.5 285Z" fill="#F02656"/>
<mask id="mask0_35_2220" style="mask-type:luminance" maskUnits="userSpaceOnUse" x="-74" y="-69" width="521" height="354">
<path fill-rule="evenodd" clip-rule="evenodd" d="M186.5 285C330.094 285 446.5 205.754 446.5 108C446.5 10.2456 330.094 -69 186.5 -69C42.906 -69 -73.5 10.2456 -73.5 108C-73.5 205.754 42.906 285 186.5 285Z" fill="white"/>
</mask>
<g mask="url(#mask0_35_2220)">
<path opacity="0.1" fill-rule="evenodd" clip-rule="evenodd" d="M377.698 288.671C431.303 235.009 430.101 163.424 372.022 107.363C313.943 51.3018 258.5 34.3565 256.143 -12.7545C253.786 -59.8654 250.105 -112.026 196.951 -122.887C143.796 -133.749 127.677 -73.2747 125.06 1.67958C122.442 76.6339 56.5156 116.357 133.142 157.056C209.768 197.755 133.846 280.156 189.642 315.625C245.438 351.094 324.092 342.333 377.698 288.671Z" fill="black"/>
<path fill-rule="evenodd" clip-rule="evenodd" d="M152.018 154.097C108.305 203.055 111.434 266.127 162.164 313.763C212.895 361.398 260.243 374.63 263.625 416.09C267.007 457.55 271.657 503.421 316.892 511.36C362.128 519.299 373.964 465.489 373.964 399.329C373.964 333.17 428.5 296.12 362.55 262.599C296.6 229.078 358.322 154.097 310.128 124.545C261.934 94.9939 195.731 105.138 152.018 154.097Z" fill="black" fill-opacity="0.05"/>
</g>
</g>
<defs>
<clipPath id="clip0_35_2220">
<rect width="375" height="285" fill="white"/>
</clipPath>
</defs>
</svg>
