<svg width="37" height="37" viewBox="0 0 37 37" fill="none" xmlns="http://www.w3.org/2000/svg">
<rect x="0.25" y="0.912354" width="36" height="36" rx="14" fill="#D94C65"/>
<path d="M22.0006 20.615C21.6121 20.615 21.298 20.9298 21.298 21.3176V24.1282C21.298 24.5154 20.9832 24.8308 20.5953 24.8308H18.4873V14.2912C18.4873 13.6911 18.1051 13.155 17.5304 12.9554L17.3223 12.8858H20.5953C20.9832 12.8858 21.298 13.2013 21.298 13.5886V15.6965C21.298 16.0843 21.6121 16.3991 22.0006 16.3991C22.3892 16.3991 22.7032 16.0843 22.7032 15.6965V13.5886C22.7032 12.4264 21.7574 11.4806 20.5953 11.4806H13.0419C13.0151 11.4806 12.9927 11.4926 12.9668 11.4961C12.9329 11.4932 12.9006 11.4806 12.8663 11.4806C12.0912 11.4806 11.4609 12.1108 11.4609 12.8859V25.5335C11.4609 26.1335 11.8432 26.6696 12.4179 26.8692L16.6465 28.2788C16.7898 28.323 16.9323 28.3441 17.0821 28.3441C17.8571 28.3441 18.4873 27.7138 18.4873 26.9388V26.2362H20.5952C21.7574 26.2362 22.7032 25.2904 22.7032 24.1282V21.3176C22.7032 20.9298 22.3891 20.615 22.0006 20.615H22.0006Z" fill="white"/>
<path d="M28.119 18.0102L25.3083 15.1997C25.2101 15.1013 25.0849 15.0344 24.9486 15.0072C24.8123 14.98 24.671 14.9939 24.5425 15.0471C24.2805 15.1561 24.109 15.4125 24.109 15.6964V17.8044H21.2984C20.9105 17.8044 20.5957 18.1191 20.5957 18.507C20.5957 18.8949 20.9105 19.2096 21.2984 19.2096H24.109V21.3175C24.109 21.6014 24.2805 21.8579 24.5425 21.9668C24.671 22.02 24.8123 22.0339 24.9486 22.0067C25.0849 21.9796 25.2101 21.9126 25.3083 21.8144L28.119 19.0037C28.3937 18.729 28.3937 18.2849 28.119 18.0102Z" fill="white"/>
</svg>
