<svg width="27" height="26" viewBox="0 0 27 26" fill="none" xmlns="http://www.w3.org/2000/svg">
<path fill-rule="evenodd" clip-rule="evenodd" d="M18.8852 17.1372L22.4728 20.7248C22.887 21.1379 22.887 21.8095 22.4728 22.2226C22.0597 22.6368 21.3892 22.6368 20.9751 22.2226L17.3874 18.6349C15.9521 19.7503 14.1493 20.4145 12.1908 20.4145C7.51101 20.4145 3.7168 16.6203 3.7168 11.9405C3.7168 7.26077 7.51101 3.46655 12.1908 3.46655C16.8705 3.46655 20.6647 7.26077 20.6647 11.9405C20.6647 13.8991 20.0006 15.7019 18.8852 17.1372ZM5.83529 11.9405C5.83529 15.4508 8.68042 18.296 12.1908 18.296C15.7011 18.296 18.5462 15.4508 18.5462 11.9405C18.5462 8.43017 15.7011 5.58504 12.1908 5.58504C8.68042 5.58504 5.83529 8.43017 5.83529 11.9405Z" fill="white"/>
</svg>
